<?xml version="1.0" encoding="UTF-8"?>
<svg version="1.1" xmlns="http://www.w3.org/2000/svg" width="512" height="512">
<path d="M0 0 C14.29601444 0.72983995 28.58655517 1.22085873 42.89710635 1.55580503 C43.91565997 1.57971287 44.93421359 1.6036207 45.98363247 1.62825302 C51.09737631 1.74707781 56.211198 1.86205919 61.32507187 1.97513622 C103.24806599 2.90703604 145.12518298 4.49864463 187.00721377 6.55458432 C192.07208633 45.86551787 195.46748882 85.21762753 197.25721377 124.80458432 C197.29058616 125.53408638 197.32395855 126.26358844 197.35834223 127.01519662 C200.87332363 204.68500685 197.28868939 268.63320105 142.7357294 328.91572934 C133.06749408 339.38249531 122.83357443 349.22147522 112.4196493 358.93885213 C109.6408613 361.54646947 106.88976733 364.18032088 104.1457178 366.82443601 C37.94210895 430.49868703 37.94210895 430.49868703 -2.05990392 430.19364816 C-9.15138908 430.01989326 -16.19636214 429.38528195 -23.25488657 428.71366549 C-40.5672791 427.10905113 -52.75899211 426.91901999 -66.82199579 438.13775879 C-77.72362791 447.19129626 -87.1700179 457.91438015 -96.29414505 468.71106452 C-101.0237159 474.29146472 -105.97744142 479.65382395 -110.95446664 485.01309389 C-119.43123267 494.14405243 -127.75713535 503.38260989 -135.85445005 512.85417539 C-136.50753141 513.61000409 -137.16061277 514.3658328 -137.83348447 515.1445654 C-138.39921926 515.80695753 -138.96495404 516.46934966 -139.54783231 517.15181428 C-140.99278623 518.55458432 -140.99278623 518.55458432 -142.99278623 518.55458432 C-142.99278623 488.52458432 -142.99278623 458.49458432 -142.99278623 427.55458432 C-179.29278623 427.55458432 -215.59278623 427.55458432 -252.99278623 427.55458432 C-255.01987062 387.05916137 -256.69068425 346.61343066 -257.63973121 306.08138011 C-257.75347388 301.24154922 -257.871264 296.40182477 -257.99156553 291.56215268 C-258.01543577 290.59912006 -258.03930602 289.63608743 -258.06389961 288.643872 C-258.40638009 275.16437227 -258.96574541 261.70952604 -259.70280341 248.24606297 C-267.93287963 97.67440317 -267.93287963 97.67440317 -225.29134606 49.03242345 C-168.13005481 -14.43518005 -77.76563116 -4.01352214 0 0 Z " fill="#9146FF" transform="translate(288.99278622865677,-6.554584324359894)"/>
<path d="M0 0 C96.69 0 193.38 0 293 0 C298.7403447 120.70450846 298.7403447 120.70450846 297.55859375 151.40234375 C297.51929143 152.47845626 297.4799891 153.55456876 297.4394958 154.66329074 C296.09165546 189.63762461 292.79251176 220.47142989 265.96203613 245.75231934 C264.36148653 247.18153351 262.74905859 248.59755718 261.125 250 C260.31704483 250.69838486 259.50908966 251.39676971 258.676651 252.11631775 C236.24812485 270.99371948 213.51754491 277.80965768 184.61093521 275.41218948 C181.54009205 275.11199126 178.48447519 274.71847031 175.4246664 274.32311535 C160.99015865 272.53046122 148.92524924 271.81174975 136.74707031 280.81152344 C117.98445761 295.53809457 102.03825215 314.47524681 87.23642445 333.07652569 C86.17774821 334.40069988 85.09191412 335.70309746 84 337 C83.67 337 83.34 337 83 337 C83 316.21 83 295.42 83 274 C55.61 274 28.22 274 0 274 C0 183.58 0 93.16 0 0 Z " fill="#FEFEFF" transform="translate(146,37)"/>
<path d="M0 0 C11.88 0 23.76 0 36 0 C36 35.97 36 71.94 36 109 C24.12 109 12.24 109 0 109 C0 73.03 0 37.06 0 0 Z " fill="#9146FF" transform="translate(348,101)"/>
<path d="M0 0 C11.88 0 23.76 0 36 0 C36 35.97 36 71.94 36 109 C24.12 109 12.24 109 0 109 C0 73.03 0 37.06 0 0 Z " fill="#9146FF" transform="translate(247,101)"/>
</svg>
