<?xml version="1.0" encoding="UTF-8"?>
<svg version="1.1" xmlns="http://www.w3.org/2000/svg" width="1024" height="1024">
<path d="M0 0 C1.35090861 0.09265226 2.70182012 0.18526222 4.05273438 0.27783203 C7.93196191 0.54741404 11.80980365 0.83418576 15.6875 1.125 C16.70376465 1.19976562 17.7200293 1.27453125 18.76708984 1.3515625 C61.36153509 4.58829079 104.70034555 15.70840212 143.6875 33.125 C144.82832031 33.61226562 145.96914063 34.09953125 147.14453125 34.6015625 C165.29670444 42.40679684 184.6826041 51.23086217 200.6875 62.9375 C203.58183217 65.04795054 206.44357338 66.62171693 209.6875 68.125 C209.6875 68.785 209.6875 69.445 209.6875 70.125 C210.50541016 70.24681641 210.50541016 70.24681641 211.33984375 70.37109375 C214.51406979 71.39043755 216.61899209 73.14505311 219.25 75.1875 C220.31971033 76.00989843 221.39003631 76.83149662 222.4609375 77.65234375 C222.99944336 78.06726074 223.53794922 78.48217773 224.09277344 78.90966797 C226.4877803 80.73488906 228.93107548 82.49106277 231.375 84.25 C234.8945579 86.80781824 238.40471314 89.37559556 241.875 92 C242.61105469 92.55429688 243.34710937 93.10859375 244.10546875 93.6796875 C244.88857422 94.39511719 244.88857422 94.39511719 245.6875 95.125 C245.6875 95.785 245.6875 96.445 245.6875 97.125 C246.23148438 97.35058594 246.77546875 97.57617188 247.3359375 97.80859375 C250.39476045 99.52092487 252.78351954 101.79507797 255.3125 104.1875 C256.38236603 105.18537473 257.45268538 106.18276364 258.5234375 107.1796875 C259.05549805 107.67694336 259.58755859 108.17419922 260.13574219 108.68652344 C262.37391434 110.7613048 264.65615026 112.78541835 266.9375 114.8125 C276.55962009 123.46471038 284.97518626 132.79669064 292.890625 143.0234375 C294.69457833 145.32610949 294.69457833 145.32610949 297.6875 147.125 C297.6875 148.115 297.6875 149.105 297.6875 150.125 C298.25082031 150.32351562 298.81414063 150.52203125 299.39453125 150.7265625 C302.5919905 152.67663134 304.31749843 155.45535228 306.375 158.5 C307.259035 159.77569816 308.14447814 161.05042153 309.03125 162.32421875 C309.4746875 162.96407715 309.918125 163.60393555 310.375 164.26318359 C312.30557865 167.00176111 314.33842267 169.65169776 316.375 172.3125 C320.46578502 177.73817276 324.13279976 183.33772633 327.6875 189.125 C328.35910156 190.20136719 329.03070312 191.27773438 329.72265625 192.38671875 C341.99682817 212.1401057 352.66717258 232.71505465 361.125 254.375 C361.50720703 255.34824219 361.88941406 256.32148438 362.28320312 257.32421875 C366.15195977 267.21615001 369.82371638 277.07885689 372.6875 287.3125 C372.94241211 288.21307129 373.19732422 289.11364258 373.45996094 290.04150391 C375.38199408 296.88980738 377.15492564 303.76673224 378.828125 310.6796875 C379.39642803 312.95806603 380.01313141 315.2249675 380.6796875 317.4765625 C396.24135014 373.81219393 392.79271851 438.56256306 380.6875 495.125 C380.40060303 496.50558594 380.40060303 496.50558594 380.10791016 497.9140625 C377.15986138 512.09363455 377.15986138 512.09363455 374.6875 518.125 C374.22199579 519.93051055 373.78615285 521.7438423 373.375 523.5625 C371.94118506 529.47971596 369.97822214 535.10375418 367.875 540.8125 C366.87183965 543.61078939 365.99391032 546.39090887 365.1875 549.25 C363.81863048 553.9530992 361.98844932 558.3859581 360.0546875 562.8828125 C359.12384467 565.09023978 358.23459691 567.3155656 357.3828125 569.5546875 C353.59456953 579.50685124 348.82958752 588.76416116 343.75927734 598.12036133 C342.86150824 599.79953722 342.00215567 601.49917643 341.15234375 603.203125 C339.34924908 606.79969783 337.4097173 610.30647655 335.4375 613.8125 C335.0441748 614.51221924 334.65084961 615.21193848 334.24560547 615.93286133 C331.38146947 620.98827579 328.36924896 625.92473287 325.1953125 630.79296875 C324.11210211 632.46829674 323.09284328 634.18561907 322.1171875 635.92578125 C321.64539063 636.65152344 321.17359375 637.37726562 320.6875 638.125 C320.0275 638.125 319.3675 638.125 318.6875 638.125 C318.43097656 638.84558594 318.17445313 639.56617188 317.91015625 640.30859375 C316.61402036 643.29426142 315.07048923 645.58172351 313.125 648.1875 C312.41859375 649.13882813 311.7121875 650.09015625 310.984375 651.0703125 C310.22640625 652.07835937 309.4684375 653.08640625 308.6875 654.125 C307.87990471 655.20550229 307.07261613 656.2862339 306.265625 657.3671875 C304.07840131 660.29063354 301.88438869 663.20881442 299.6875 666.125 C299.14738281 666.89972656 298.60726562 667.67445313 298.05078125 668.47265625 C297.60089844 669.01792969 297.15101563 669.56320312 296.6875 670.125 C296.0275 670.125 295.3675 670.125 294.6875 670.125 C294.34235352 670.9308252 294.34235352 670.9308252 293.99023438 671.75292969 C292.29579526 674.8382315 290.12178717 677.41608953 287.84375 680.078125 C287.11702087 680.93099091 287.11702087 680.93099091 286.37561035 681.80108643 C281.42230912 687.54287154 276.16238388 692.95381875 270.78076172 698.29248047 C269.18087171 699.8815836 267.59205586 701.48120375 266.00390625 703.08203125 C250.0107308 719.09860294 250.0107308 719.09860294 243.43945312 722.17871094 C241.32871954 723.0606401 241.32871954 723.0606401 240.6875 726.125 C239.6975 726.125 238.7075 726.125 237.6875 726.125 C237.50058594 726.67671875 237.31367187 727.2284375 237.12109375 727.796875 C235.03013603 731.19254475 231.96053491 733.12368141 228.75 735.375 C228.07485352 735.85807617 227.39970703 736.34115234 226.70410156 736.83886719 C225.33823973 737.81614813 223.97025436 738.79046843 222.60009766 739.76171875 C220.02136361 741.59981563 217.4818716 743.48973479 214.9375 745.375 C210.50623186 748.59654508 205.9554244 751.56860037 201.30859375 754.46875 C198.87175823 756.00856857 196.49843596 757.61487365 194.125 759.25 C182.39717742 767.125 182.39717742 767.125 177.6875 767.125 C177.6875 767.785 177.6875 768.445 177.6875 769.125 C176.51703125 769.70894531 175.3465625 770.29289063 174.140625 770.89453125 C171.45789736 772.23530623 168.78006952 773.58464672 166.109375 774.94921875 C158.5909778 778.77476215 151.00394324 782.4095214 143.3125 785.875 C142.50522461 786.23940186 141.69794922 786.60380371 140.86621094 786.97924805 C132.86662373 790.55323608 124.88757001 793.85443574 116.4609375 796.2734375 C111.97093796 797.65205708 107.58277065 799.30931654 103.1796875 800.94140625 C100.1016963 801.98461803 97.03783429 802.8239315 93.87939453 803.58227539 C91.45649956 804.18219692 89.05826821 804.84870916 86.65625 805.52734375 C75.72613254 808.60486179 64.91456879 811.35271766 53.6875 813.125 C52.90133301 813.2497168 52.11516602 813.37443359 51.30517578 813.50292969 C46.21221795 814.30225072 41.11406047 815.05852456 36.01074219 815.78857422 C33.94544884 816.08764675 31.88266408 816.40392919 29.8203125 816.72265625 C7.32864036 820.04473036 -15.62358152 819.36940393 -38.29949951 819.14459229 C-40.02792777 819.12776971 -41.75639462 819.11499919 -43.48486328 819.10302734 C-69.4313863 818.82032285 -96.1992479 814.42881825 -121.3125 808.125 C-121.99779785 807.95645508 -122.6830957 807.78791016 -123.38916016 807.61425781 C-131.26089087 805.66363542 -139.03613034 803.35898679 -146.8125 801.0625 C-147.64998779 800.81701416 -148.48747559 800.57152832 -149.3503418 800.31860352 C-154.16785654 798.87436514 -158.69249764 797.12804156 -163.3125 795.125 C-165.53431467 794.35090556 -167.76837154 793.62199766 -170.00537109 792.89306641 C-181.16788623 789.1769529 -191.89249533 784.57245553 -202.3125 779.125 C-204.60332108 777.99827914 -206.89502962 776.87336132 -209.1875 775.75 C-223.44373323 768.61404167 -237.42931645 760.518988 -250.3125 751.125 C-251.49392578 750.42117188 -251.49392578 750.42117188 -252.69921875 749.703125 C-256.83960729 747.20280068 -260.66998026 744.29660049 -264.55566406 741.42138672 C-265.82855048 740.48211117 -267.10431872 739.54673692 -268.38183594 738.61376953 C-270.59270534 736.99896306 -272.79684843 735.37531578 -275 733.75 C-275.71969971 733.22607666 -276.43939941 732.70215332 -277.1809082 732.16235352 C-277.84695068 731.66791748 -278.51299316 731.17348145 -279.19921875 730.6640625 C-279.79951904 730.22271973 -280.39981934 729.78137695 -281.01831055 729.32666016 C-281.44539307 728.9301123 -281.87247559 728.53356445 -282.3125 728.125 C-282.3125 727.465 -282.3125 726.805 -282.3125 726.125 C-283.1478125 726.0321875 -283.1478125 726.0321875 -284 725.9375 C-286.58653381 725.02871785 -287.85434715 723.7458335 -289.70703125 721.7734375 C-293.90381061 717.46433558 -298.5249292 713.51730392 -303.08764648 709.6015625 C-308.53348553 704.91101553 -313.67116202 699.95893364 -318.75 694.875 C-319.5845874 694.03960693 -320.4191748 693.20421387 -321.27905273 692.34350586 C-335.55700366 677.92301299 -335.55700366 677.92301299 -338.33984375 671.90234375 C-339.24516594 669.76944228 -339.24516594 669.76944228 -342.3125 669.125 C-344.1875 666.9296875 -344.1875 666.9296875 -346.3125 664 C-346.88810669 663.21387329 -346.88810669 663.21387329 -347.4753418 662.41186523 C-348.31142015 661.26857436 -349.14420402 660.12286884 -349.97412109 658.97509766 C-351.86401219 656.36262141 -353.77086765 653.7626978 -355.67773438 651.16259766 C-356.6224304 649.87336169 -357.56522774 648.58273169 -358.50585938 647.29052734 C-360.44264492 644.6356479 -362.39140786 642.02790466 -364.46484375 639.4765625 C-366.24684048 637.20856666 -367.67401216 634.96163376 -369.0625 632.4375 C-369.70445312 631.28701172 -369.70445312 631.28701172 -370.359375 630.11328125 C-371.3125 628.125 -371.3125 628.125 -371.3125 626.125 C-371.9725 626.125 -372.6325 626.125 -373.3125 626.125 C-374.15364171 624.69205502 -374.98515687 623.25345595 -375.8125 621.8125 C-376.50859375 620.61173828 -376.50859375 620.61173828 -377.21875 619.38671875 C-378.3125 617.125 -378.3125 617.125 -378.3125 614.125 C-378.9725 614.125 -379.6325 614.125 -380.3125 614.125 C-384.83422963 605.66769088 -389.32598788 597.19817447 -393.625 588.625 C-393.93759766 588.00431641 -394.25019531 587.38363281 -394.57226562 586.74414062 C-402.63895426 570.55916407 -409.28235685 553.42193514 -414.66601562 536.16650391 C-415.39417196 533.86709179 -416.15901796 531.58109533 -416.921875 529.29296875 C-425.73029638 502.30252432 -430.28736303 474.29034397 -433.3125 446.125 C-433.39756805 445.39781265 -433.48263611 444.67062531 -433.57028198 443.92140198 C-434.30989205 437.24359493 -434.51955057 430.61784556 -434.5859375 423.90234375 C-434.59837494 422.73950363 -434.61081238 421.57666351 -434.62362671 420.37858582 C-434.81134813 398.56787255 -434.88037984 376.91090841 -432.0625 355.25 C-431.96007996 354.45665253 -431.85765991 353.66330505 -431.75213623 352.84591675 C-429.51697891 336.03062572 -426.20772566 319.31944585 -421.65625 302.9765625 C-420.72525269 299.62086485 -419.81065899 296.26139787 -418.90625 292.8984375 C-415.74479465 281.30926931 -411.89679099 270.22129048 -407.3125 259.125 C-406.51683498 257.17191252 -405.72126742 255.21878533 -404.92578125 253.265625 C-402.44013097 247.19627111 -399.89785495 241.15252782 -397.3125 235.125 C-396.98169434 234.3530127 -396.65088867 233.58102539 -396.31005859 232.78564453 C-387.78371319 213.15836715 -376.15679524 194.89144287 -364.3125 177.125 C-363.49265625 175.80628906 -363.49265625 175.80628906 -362.65625 174.4609375 C-362.0478125 173.48382813 -361.439375 172.50671875 -360.8125 171.5 C-360.2453125 170.57960938 -359.678125 169.65921875 -359.09375 168.7109375 C-357.35675119 166.18924185 -355.48784317 164.26641969 -353.3125 162.125 C-352.09522593 160.50106421 -350.90964325 158.85307832 -349.75 157.1875 C-342.465385 147.04299911 -334.13796781 137.80286305 -325.625 128.68359375 C-323.3263265 126.23449307 -323.3263265 126.23449307 -321.625 123.78515625 C-321.191875 123.23730469 -320.75875 122.68945312 -320.3125 122.125 C-319.6525 122.125 -318.9925 122.125 -318.3125 122.125 C-317.3225 120.145 -317.3225 120.145 -316.3125 118.125 C-315.6525 118.125 -314.9925 118.125 -314.3125 118.125 C-314.0546875 117.53074219 -313.796875 116.93648438 -313.53125 116.32421875 C-312.20553053 113.93197497 -310.90871136 112.67718361 -308.8125 110.9375 C-305.55791076 108.19088658 -302.38806956 105.37935849 -299.25 102.5 C-295.43450595 99.04844539 -291.53428982 96.05440518 -287.3125 93.125 C-286.79558594 92.58617187 -286.27867187 92.04734375 -285.74609375 91.4921875 C-284.3125 90.125 -284.3125 90.125 -282.3125 90.125 C-282.07144531 89.53074219 -281.83039063 88.93648438 -281.58203125 88.32421875 C-280.05321737 85.6758427 -278.54286937 84.62303534 -276 82.9375 C-275.113125 82.339375 -274.22625 81.74125 -273.3125 81.125 C-272.3225 80.465 -271.3325 79.805 -270.3125 79.125 C-268.03554938 77.57131605 -265.76776396 76.00454856 -263.5 74.4375 C-262.44167969 73.71175781 -261.38335937 72.98601562 -260.29296875 72.23828125 C-258.37891683 70.88113566 -256.50137111 69.47008852 -254.67578125 67.99609375 C-252.59491116 66.34859495 -250.65395566 65.10060569 -248.3125 63.875 C-244.58853161 61.86649902 -241.01359795 59.69872224 -237.4375 57.4375 C-226.25047594 50.50598334 -214.43651687 44.66046187 -202.6875 38.75 C-202.07350342 38.440625 -201.45950684 38.13125 -200.8269043 37.8125 C-175.90831519 25.39874504 -148.4748588 16.14122421 -121.3125 10.125 C-120.24 9.88523437 -119.1675 9.64546875 -118.0625 9.3984375 C-114.96846089 8.74668389 -111.86909099 8.14726159 -108.75878906 7.57861328 C-106.97762978 7.24833444 -105.19858003 6.90661751 -103.42089844 6.55810547 C-87.00771722 3.36485041 -70.73576603 1.45964035 -54.0625 0.3125 C-52.71279114 0.21775391 -52.71279114 0.21775391 -51.33581543 0.12109375 C-34.14490595 -1.0597753 -17.19829913 -1.21224431 0 0 Z M-13.125 178.0625 C-16.20221916 182.37060682 -17.56303079 184.98698674 -17.55859566 190.31801987 C-17.56257775 191.37448613 -17.56655985 192.43095239 -17.57066262 193.51943278 C-17.56483693 194.67895685 -17.55901125 195.83848093 -17.55300903 197.03314209 C-17.55471788 198.26570905 -17.55642673 199.49827601 -17.55818737 200.76819348 C-17.56091523 204.19111494 -17.55465267 207.61380846 -17.54463124 211.03670239 C-17.53600393 214.72719143 -17.53891639 218.41767327 -17.54043579 222.10816956 C-17.5414851 228.50276105 -17.53520373 234.89731177 -17.52396011 241.29189301 C-17.50771427 250.5374074 -17.50249805 259.78290206 -17.49998413 269.02842918 C-17.49560559 284.02824131 -17.48229217 299.0280317 -17.46337891 314.02783203 C-17.44502423 328.59977103 -17.4308657 343.17170412 -17.42236328 357.74365234 C-17.42157511 359.09070451 -17.42157511 359.09070451 -17.42077102 360.46496984 C-17.41816097 364.97009272 -17.41563354 369.47521563 -17.41314721 373.98033857 C-17.39240976 411.36190773 -17.35717989 448.74345217 -17.3125 486.125 C-20.95345681 484.69832383 -24.35690046 483.08222723 -27.8125 481.25 C-38.00728135 476.14011572 -47.9233995 473.43684442 -59.3125 473.125 C-60.6221875 473.08503906 -61.931875 473.04507812 -63.28125 473.00390625 C-96.94183511 472.32004812 -128.09086247 484.2449096 -152.58984375 507.46484375 C-169.56785622 524.05311706 -180.34543144 544.01701134 -180.625 568 C-180.57769787 582.22611671 -176.52585514 594.01686815 -169.3125 606.125 C-168.6525 606.125 -167.9925 606.125 -167.3125 606.125 C-167.2196875 606.72054688 -167.126875 607.31609375 -167.03125 607.9296875 C-166.14592903 610.63376569 -165.03289762 611.51190187 -162.8125 613.25 C-159.40063559 615.94872881 -159.40063559 615.94872881 -158.3125 618.125 C-156.65884594 619.14637457 -154.98873498 620.14112294 -153.3125 621.125 C-152.20264496 621.92971241 -151.09882079 622.74278472 -150 623.5625 C-130.15098209 637.78904932 -101.93769863 639.8009625 -78.46484375 636.36328125 C-58.82805181 633.02772132 -40.28202073 626.1807651 -24.3125 614.125 C-23.6525 613.795 -22.9925 613.465 -22.3125 613.125 C-22.3125 612.465 -22.3125 611.805 -22.3125 611.125 C-21.4771875 611.0321875 -21.4771875 611.0321875 -20.625 610.9375 C-18.05043424 610.03292284 -16.724082 608.76741183 -14.8828125 606.79296875 C-12.06228504 603.79703535 -9.05771825 600.97884153 -6.10546875 598.11328125 C-4.08927004 596.3236717 -4.08927004 596.3236717 -4.3125 594.125 C-3.6525 594.125 -2.9925 594.125 -2.3125 594.125 C3.69755568 587.24862999 7.91012761 579.38057803 11.6875 571.125 C11.99429688 570.46628906 12.30109375 569.80757812 12.6171875 569.12890625 C17.49564553 558.2403891 18.83841764 548.19856129 18.82553101 536.3639679 C18.82835229 535.30302026 18.83117357 534.24207263 18.83408034 533.14897507 C18.84239048 529.60622655 18.84376147 526.06350941 18.84521484 522.52075195 C18.84988547 519.97599195 18.85502945 517.43123278 18.86061096 514.88647461 C18.87187273 509.41306409 18.88036581 503.93965999 18.88673019 498.46624184 C18.8970804 489.81513579 18.9176481 481.16406781 18.93984985 472.51298523 C18.94732825 469.55054582 18.9547421 466.58810624 18.96213722 463.62566662 C18.96491307 462.51537823 18.96491307 462.51537823 18.967745 461.38265977 C18.98864715 452.96824496 19.00748962 444.55382599 19.02539062 436.1394043 C19.02702881 435.37067064 19.02866699 434.60193697 19.03035481 433.80990835 C19.05667227 421.33663832 19.07530077 408.86336533 19.09198253 396.39007924 C19.10939601 383.57655635 19.13822837 370.76309161 19.1768719 357.94961518 C19.20027279 350.04906858 19.21426653 342.14861675 19.21619953 334.24803521 C19.21855587 328.19934849 19.2364074 322.15081038 19.26006889 316.10216522 C19.26728236 313.61931754 19.26935301 311.13644892 19.26596642 308.65359306 C19.26208817 305.270549 19.27647322 301.88806248 19.29550171 298.50508118 C19.28997201 297.51734673 19.28444232 296.52961229 19.27874506 295.5119465 C19.36178991 286.98916461 19.36178991 286.98916461 22.6875 283.125 C31.46896543 280.84832378 43.50596607 284.0881136 51.16015625 288.57421875 C51.99417969 289.08597656 52.82820312 289.59773438 53.6875 290.125 C54.81542969 290.60710937 55.94335938 291.08921875 57.10546875 291.5859375 C66.5361873 295.63795834 74.42790412 301.3317418 81.76171875 308.4375 C83.51144711 310.34468149 83.51144711 310.34468149 85.6875 310.125 C85.92855469 310.68960938 86.16960937 311.25421875 86.41796875 311.8359375 C87.93975125 314.57982841 89.81737937 316.49768224 92 318.75 C96.35929239 323.47491046 99.19069442 328.22802199 101.6875 334.125 C102.3475 334.125 103.0075 334.125 103.6875 334.125 C103.94273437 334.90810547 103.94273437 334.90810547 104.203125 335.70703125 C105.6444099 340.08455082 107.15336388 344.42652467 108.75 348.75 C118.59096226 375.8689876 114.9017862 408.35092097 103.859375 434.64453125 C100.86157202 440.98988088 97.58130121 447.28429819 93.6875 453.125 C93.1875 455.625 93.1875 455.625 93.6875 458.125 C95.16709573 460.17326062 95.16709573 460.17326062 97.6875 461.125 C101.31939568 461.33453244 103.63477553 460.8962818 106.6015625 458.72265625 C114.87613389 450.92609794 121.06555524 440.79356504 126.29296875 430.78515625 C127.21674999 429.02298532 128.17766669 427.27975193 129.17578125 425.55859375 C133.67358377 417.76007827 136.76537255 409.6032591 139.6875 401.125 C139.95626953 400.35526855 140.22503906 399.58553711 140.50195312 398.79248047 C150.56380529 369.68328051 150.9145262 338.25181929 140.6875 309.125 C140.19056641 307.69994141 140.19056641 307.69994141 139.68359375 306.24609375 C137.69889604 300.93972623 135.11278503 296.21866338 132.11328125 291.41796875 C130.96428415 289.57012958 129.90449398 287.6669888 128.875 285.75 C125.74661433 280.22540404 121.7952362 274.95436553 117.6875 270.125 C117.0275 270.125 116.3675 270.125 115.6875 270.125 C115.47996094 269.59261719 115.27242187 269.06023437 115.05859375 268.51171875 C113.1326871 265.15921458 110.48500632 262.62768304 107.75 259.9375 C107.17024414 259.36306152 106.59048828 258.78862305 105.99316406 258.19677734 C100.83454743 253.14956878 95.38990675 248.54868524 89.6875 244.125 C88.83671875 243.465 87.9859375 242.805 87.109375 242.125 C85.59825242 240.95509864 84.08326138 239.79015664 82.5625 238.6328125 C80.80959475 237.22318453 79.27343336 235.7154134 77.6875 234.125 C76.03384594 233.10362543 74.36373498 232.10887706 72.6875 231.125 C70.34170017 229.53945072 68.00541427 227.94123994 65.67578125 226.33203125 C63.79022543 224.9520219 63.79022543 224.9520219 61.6875 225.125 C61.6875 224.465 61.6875 223.805 61.6875 223.125 C60.16791413 222.08047504 58.59268785 221.11675725 57 220.1875 C51.07057162 216.52745336 45.91879546 212.31019594 40.6875 207.7421875 C38.96336334 206.23805786 37.22233117 204.75189584 35.4375 203.3203125 C28.31776833 197.54988482 23.01236891 189.91142587 17.8125 182.42578125 C13.89683456 176.94203683 10.28241646 173.88520902 3.6875 172.125 C-2.96914646 171.32161163 -8.66711834 172.89867813 -13.125 178.0625 Z " fill="#37A2EB" transform="translate(534.3125,97.875)"/>
<path d="M0 0 C1.35090861 0.09265226 2.70182012 0.18526222 4.05273438 0.27783203 C7.93196191 0.54741404 11.80980365 0.83418576 15.6875 1.125 C16.70376465 1.19976562 17.7200293 1.27453125 18.76708984 1.3515625 C61.36153509 4.58829079 104.70034555 15.70840212 143.6875 33.125 C144.82832031 33.61226562 145.96914063 34.09953125 147.14453125 34.6015625 C165.29670444 42.40679684 184.6826041 51.23086217 200.6875 62.9375 C203.58183217 65.04795054 206.44357338 66.62171693 209.6875 68.125 C209.6875 68.785 209.6875 69.445 209.6875 70.125 C210.50541016 70.24681641 210.50541016 70.24681641 211.33984375 70.37109375 C214.51406979 71.39043755 216.61899209 73.14505311 219.25 75.1875 C220.31971033 76.00989843 221.39003631 76.83149662 222.4609375 77.65234375 C222.99944336 78.06726074 223.53794922 78.48217773 224.09277344 78.90966797 C226.4877803 80.73488906 228.93107548 82.49106277 231.375 84.25 C234.8945579 86.80781824 238.40471314 89.37559556 241.875 92 C242.61105469 92.55429688 243.34710937 93.10859375 244.10546875 93.6796875 C244.88857422 94.39511719 244.88857422 94.39511719 245.6875 95.125 C245.6875 95.785 245.6875 96.445 245.6875 97.125 C246.23148438 97.35058594 246.77546875 97.57617188 247.3359375 97.80859375 C250.39476045 99.52092487 252.78351954 101.79507797 255.3125 104.1875 C256.38236603 105.18537473 257.45268538 106.18276364 258.5234375 107.1796875 C259.05549805 107.67694336 259.58755859 108.17419922 260.13574219 108.68652344 C262.37391434 110.7613048 264.65615026 112.78541835 266.9375 114.8125 C276.55962009 123.46471038 284.97518626 132.79669064 292.890625 143.0234375 C294.69457833 145.32610949 294.69457833 145.32610949 297.6875 147.125 C297.6875 148.115 297.6875 149.105 297.6875 150.125 C298.25082031 150.32351562 298.81414063 150.52203125 299.39453125 150.7265625 C302.5919905 152.67663134 304.31749843 155.45535228 306.375 158.5 C307.259035 159.77569816 308.14447814 161.05042153 309.03125 162.32421875 C309.4746875 162.96407715 309.918125 163.60393555 310.375 164.26318359 C312.30557865 167.00176111 314.33842267 169.65169776 316.375 172.3125 C320.46578502 177.73817276 324.13279976 183.33772633 327.6875 189.125 C328.35910156 190.20136719 329.03070312 191.27773438 329.72265625 192.38671875 C336.94170635 204.00466666 343.37782209 215.99493141 349.6875 228.125 C350.05174072 228.8250415 350.41598145 229.52508301 350.79125977 230.24633789 C352.66607367 233.91351361 354.31871936 237.4767355 355.5 241.4375 C355.75394531 242.25863281 356.00789062 243.07976562 356.26953125 243.92578125 C356.6875 246.125 356.6875 246.125 355.6875 249.125 C355.34605957 248.37105957 355.00461914 247.61711914 354.65283203 246.84033203 C347.88471238 231.94593404 341.06914484 217.19727558 332.6875 203.125 C332.20345703 202.30515625 331.71941406 201.4853125 331.22070312 200.640625 C323.90410606 188.31405037 315.96920669 176.61807326 307.28173828 165.21875 C305.82076246 163.30001667 304.37478813 161.37110687 302.93359375 159.4375 C298.2518505 153.19787252 293.29097155 147.32016189 287.984375 141.6015625 C286.03064595 139.4949907 284.12830758 137.3609702 282.25 135.1875 C279.18666936 131.67088415 276.07332906 128.20192638 272.9375 124.75 C272.46513916 124.22543213 271.99277832 123.70086426 271.50610352 123.16040039 C269.33383396 120.77995338 267.38601382 118.92400921 264.6875 117.125 C264.6875 116.465 264.6875 115.805 264.6875 115.125 C264.09066406 114.85816406 263.49382813 114.59132813 262.87890625 114.31640625 C260.64175676 113.10013068 259.34329933 111.92142741 257.625 110.0625 C253.87600478 106.20183258 249.80885642 102.86419628 245.6171875 99.49609375 C242.7428283 97.16977904 239.93601404 94.77721006 237.125 92.375 C223.52598134 81.05416745 208.8203845 71.26081192 193.6875 62.125 C192.88006348 61.63676758 192.07262695 61.14853516 191.24072266 60.64550781 C110.7254853 12.37772869 13.55487823 -6.07795606 -79.3125 6.125 C-80.58416016 6.29128906 -81.85582031 6.45757812 -83.16601562 6.62890625 C-157.56566904 16.73857229 -227.27519962 47.52919294 -285.3125 95.125 C-286.28574219 95.92292969 -287.25898438 96.72085938 -288.26171875 97.54296875 C-309.17789625 113.39055354 -309.17789625 113.39055354 -325.3125 133.125 C-325.9725 133.125 -326.6325 133.125 -327.3125 133.125 C-327.57160156 133.70507812 -327.83070313 134.28515625 -328.09765625 134.8828125 C-329.40712176 137.29963952 -330.87333897 138.99458676 -332.75 141 C-366.59431511 178.43570826 -391.10998982 223.96473419 -408.3125 271.125 C-409.30697609 273.79378001 -410.30934245 276.45946709 -411.3125 279.125 C-412.41235352 277.45336914 -412.41235352 277.45336914 -413.3125 275.125 C-412.79272461 272.64233398 -412.79272461 272.64233398 -411.71484375 269.87109375 C-411.32490234 268.85080078 -410.93496094 267.83050781 -410.53320312 266.77929688 C-410.10974609 265.71775391 -409.68628906 264.65621094 -409.25 263.5625 C-408.65541992 262.01079102 -408.65541992 262.01079102 -408.04882812 260.42773438 C-405.69857817 254.36416544 -403.13654414 248.42860225 -400.40893555 242.52612305 C-399.09844872 239.65624152 -397.92493147 236.74013451 -396.75 233.8125 C-389.3439543 216.44265054 -379.54549469 199.06145522 -368.46875 183.76318359 C-366.95637388 181.62043787 -365.63108833 179.39120891 -364.3125 177.125 C-363.17560214 175.26534108 -362.02951798 173.41127156 -360.875 171.5625 C-360.29878906 170.63308594 -359.72257812 169.70367187 -359.12890625 168.74609375 C-357.37550428 166.21591585 -355.4991395 164.27747326 -353.3125 162.125 C-352.09522593 160.50106421 -350.90964325 158.85307832 -349.75 157.1875 C-342.465385 147.04299911 -334.13796781 137.80286305 -325.625 128.68359375 C-323.3263265 126.23449307 -323.3263265 126.23449307 -321.625 123.78515625 C-321.191875 123.23730469 -320.75875 122.68945312 -320.3125 122.125 C-319.6525 122.125 -318.9925 122.125 -318.3125 122.125 C-317.3225 120.145 -317.3225 120.145 -316.3125 118.125 C-315.6525 118.125 -314.9925 118.125 -314.3125 118.125 C-314.0546875 117.53074219 -313.796875 116.93648438 -313.53125 116.32421875 C-312.20553053 113.93197497 -310.90871136 112.67718361 -308.8125 110.9375 C-305.55791076 108.19088658 -302.38806956 105.37935849 -299.25 102.5 C-295.43450595 99.04844539 -291.53428982 96.05440518 -287.3125 93.125 C-286.79558594 92.58617187 -286.27867187 92.04734375 -285.74609375 91.4921875 C-284.3125 90.125 -284.3125 90.125 -282.3125 90.125 C-282.07144531 89.53074219 -281.83039063 88.93648438 -281.58203125 88.32421875 C-280.05321737 85.6758427 -278.54286937 84.62303534 -276 82.9375 C-275.113125 82.339375 -274.22625 81.74125 -273.3125 81.125 C-272.3225 80.465 -271.3325 79.805 -270.3125 79.125 C-268.03554938 77.57131605 -265.76776396 76.00454856 -263.5 74.4375 C-262.44167969 73.71175781 -261.38335937 72.98601562 -260.29296875 72.23828125 C-258.37891683 70.88113566 -256.50137111 69.47008852 -254.67578125 67.99609375 C-252.59491116 66.34859495 -250.65395566 65.10060569 -248.3125 63.875 C-244.58853161 61.86649902 -241.01359795 59.69872224 -237.4375 57.4375 C-226.25047594 50.50598334 -214.43651687 44.66046187 -202.6875 38.75 C-202.07350342 38.440625 -201.45950684 38.13125 -200.8269043 37.8125 C-175.90831519 25.39874504 -148.4748588 16.14122421 -121.3125 10.125 C-120.24 9.88523437 -119.1675 9.64546875 -118.0625 9.3984375 C-114.96846089 8.74668389 -111.86909099 8.14726159 -108.75878906 7.57861328 C-106.97762978 7.24833444 -105.19858003 6.90661751 -103.42089844 6.55810547 C-87.00771722 3.36485041 -70.73576603 1.45964035 -54.0625 0.3125 C-52.71279114 0.21775391 -52.71279114 0.21775391 -51.33581543 0.12109375 C-34.14490595 -1.0597753 -17.19829913 -1.21224431 0 0 Z " fill="#1391E8" transform="translate(534.3125,97.875)"/>
<path d="M0 0 C10.17623281 0.36244117 19.74096525 2.36638922 28.4765625 7.7265625 C29.60449219 8.20867187 30.73242188 8.69078125 31.89453125 9.1875 C42.08777495 13.56714888 50.57313427 20.0173584 58.4765625 27.7265625 C59.3221875 28.5309375 60.1678125 29.3353125 61.0390625 30.1640625 C76.4765625 46.39322917 76.4765625 46.39322917 76.4765625 52.7265625 C77.1365625 52.7265625 77.7965625 52.7265625 78.4765625 52.7265625 C92.69753285 81.26330967 93.04261172 113.80410735 83.09375 143.89941406 C79.77460611 153.72555049 75.23772861 163.08481334 69.4765625 171.7265625 C69.09156359 173.38205781 68.74863115 175.0488058 68.4765625 176.7265625 C71.05811028 178.48201499 72.62656421 178.72939272 75.7890625 178.7890625 C85.83916538 175.89327014 92.15202739 163.4104451 97.171875 154.828125 C98.15936546 153.02375762 99.12976779 151.20992289 100.08203125 149.38671875 C101.00581249 147.62454782 101.96672919 145.88131443 102.96484375 144.16015625 C109.01151112 133.67614125 112.7842964 122.2136126 116.4765625 110.7265625 C117.1365625 110.7265625 117.7965625 110.7265625 118.4765625 110.7265625 C118.8065625 110.0665625 119.1365625 109.4065625 119.4765625 108.7265625 C114.8675308 131.78509989 102.99024823 154.37711696 88.4765625 172.7265625 C87.8784375 173.49484375 87.2803125 174.263125 86.6640625 175.0546875 C83.11048648 179.425586 80.62816854 181.45272173 75.0390625 182.1640625 C71.4765625 181.7265625 71.4765625 181.7265625 68.5390625 179.6015625 C66.05504639 176.13899458 66.01562749 174.90536891 66.4765625 170.7265625 C68.015625 167.60546875 68.015625 167.60546875 70.1015625 164.2890625 C85.22933305 139.05378442 90.90174213 106.21767711 84.515625 77.390625 C77.50190602 52.65803702 62.40341284 29.46008318 39.5859375 16.66650391 C20.55701352 6.3580714 20.55701352 6.3580714 -0.5234375 3.7265625 C-2.92326553 6.12639053 -2.77398145 6.63705952 -2.77677059 9.90760136 C-2.78519369 11.23024749 -2.78519369 11.23024749 -2.79378694 12.57961375 C-2.78980585 13.55438384 -2.78582476 14.52915394 -2.78172302 15.53346252 C-2.78539873 16.56448261 -2.78907443 17.59550269 -2.79286152 18.65776581 C-2.80289486 22.13590691 -2.79867998 25.61388979 -2.79467773 29.09204102 C-2.79906206 31.57703828 -2.80436314 34.06203407 -2.81051636 36.54702759 C-2.82204602 41.91248724 -2.8276704 47.27790508 -2.82839775 52.64337349 C-2.82972328 60.41950812 -2.84483639 68.1955707 -2.86389292 75.97167992 C-2.89476897 88.61156349 -2.91891294 101.2514489 -2.93676758 113.89135742 C-2.93784026 114.64837391 -2.93891294 115.40539039 -2.94001812 116.18534677 C-2.95181363 124.61273936 -2.96201992 133.04013269 -2.97045898 141.4675293 C-2.97353228 144.51375327 -2.9766212 147.55997724 -2.97973633 150.60620117 C-2.98050167 151.35774774 -2.98126701 152.10929431 -2.98205554 152.88361502 C-2.99518053 165.45743836 -3.01988669 178.03121011 -3.05347973 190.60499519 C-3.07367968 198.35003385 -3.08407161 206.09496177 -3.08149052 213.84002697 C-3.08032394 219.79604431 -3.09459558 225.7519638 -3.11429977 231.70795059 C-3.11986447 234.13737934 -3.12041694 236.56682601 -3.11536217 238.99625587 C-3.09067766 252.25956645 -3.57061683 264.75837932 -6.5234375 277.7265625 C-6.7357775 278.67411187 -6.9481175 279.62166124 -7.16689205 280.59792423 C-10.21682049 293.23186037 -18.42960207 304.84650132 -26.5234375 314.7265625 C-27.20921875 315.57734375 -27.895 316.428125 -28.6015625 317.3046875 C-47.73302618 339.83730027 -77.51214334 354.05116445 -106.5234375 357.7265625 C-136.70280059 359.26936593 -163.62970457 355.59371667 -187.6484375 335.6640625 C-193.5357136 330.20939774 -197.53732745 323.6249383 -201.5234375 316.7265625 C-201.9565625 315.99050781 -202.3896875 315.25445313 -202.8359375 314.49609375 C-203.5234375 312.7265625 -203.5234375 312.7265625 -202.5234375 309.7265625 C-201.18465178 311.8482988 -199.85228274 313.97361438 -198.5234375 316.1015625 C-197.95109375 317.00648438 -197.95109375 317.00648438 -197.3671875 317.9296875 C-194.5234375 322.5 -194.5234375 322.5 -194.5234375 324.7265625 C-193.8634375 324.7265625 -193.2034375 324.7265625 -192.5234375 324.7265625 C-192.4409375 325.3453125 -192.3584375 325.9640625 -192.2734375 326.6015625 C-191.71085291 328.91093817 -191.71085291 328.91093817 -189.4609375 329.9765625 C-188.8215625 330.2240625 -188.1821875 330.4715625 -187.5234375 330.7265625 C-187.5234375 331.3865625 -187.5234375 332.0465625 -187.5234375 332.7265625 C-186.2034375 333.3865625 -184.8834375 334.0465625 -183.5234375 334.7265625 C-183.5234375 335.3865625 -183.5234375 336.0465625 -183.5234375 336.7265625 C-182.94078125 336.83355469 -182.358125 336.94054687 -181.7578125 337.05078125 C-179.22554039 337.81666075 -177.81566024 338.87237245 -175.7734375 340.5390625 C-156.91257135 355.06608992 -129.41132243 357.00663984 -106.54638672 354.38525391 C-86.95083076 351.51541657 -67.16922378 345.1644909 -51.30859375 332.9765625 C-49.5234375 331.7265625 -49.5234375 331.7265625 -47.5234375 331.7265625 C-47.5234375 331.0665625 -47.5234375 330.4065625 -47.5234375 329.7265625 C-46.9046875 329.6440625 -46.2859375 329.5615625 -45.6484375 329.4765625 C-43.36749341 328.95134667 -43.36749341 328.95134667 -42.6328125 326.89453125 C-41.32764574 324.34394129 -39.85884401 323.09492291 -37.6484375 321.2890625 C-34.52041772 318.65971254 -32.0560002 315.940969 -29.5234375 312.7265625 C-28.8634375 312.7265625 -28.2034375 312.7265625 -27.5234375 312.7265625 C-27.183125 311.953125 -27.183125 311.953125 -26.8359375 311.1640625 C-25.5234375 308.7265625 -25.5234375 308.7265625 -23.2734375 305.7265625 C-12.29796631 290.65964347 -7.35935773 273.33071927 -7.39213562 254.97225952 C-7.39001991 253.91201746 -7.38790419 252.85177539 -7.38572437 251.75940478 C-7.37974932 248.21898723 -7.38072272 244.67860557 -7.3815918 241.13818359 C-7.37855877 238.59504638 -7.37503692 236.05190972 -7.37106323 233.5087738 C-7.36318694 228.03863806 -7.35801407 222.56850979 -7.35477257 217.0983696 C-7.34926201 208.45119019 -7.33235195 199.8040499 -7.31343079 191.15689087 C-7.30707512 188.1955548 -7.30076659 185.23421862 -7.29445362 182.27288246 C-7.29286986 181.532957 -7.2912861 180.79303155 -7.28965434 180.03068411 C-7.27173871 171.61909168 -7.25550038 163.20749652 -7.24047852 154.79589844 C-7.23910264 154.02742709 -7.23772677 153.25895574 -7.23630921 152.46719737 C-7.21435685 140.00106501 -7.20361629 127.53494281 -7.19610777 115.06879453 C-7.18803791 102.26090617 -7.16475607 89.45310484 -7.1281541 76.64526618 C-7.10613431 68.74929891 -7.09646278 60.85351061 -7.10265443 52.95751418 C-7.10620298 46.91052587 -7.0889741 40.86378068 -7.06397629 34.8168354 C-7.05704348 32.3360203 -7.05696025 29.85517533 -7.06417656 27.37436104 C-7.07302426 23.99152548 -7.05743629 20.60965518 -7.03569031 17.22689819 C-7.04835411 15.74966579 -7.04835411 15.74966579 -7.06127375 14.24259031 C-6.99128319 8.36714802 -6.59959246 1.90019226 0 0 Z " fill="#1590E6" transform="translate(559.5234375,379.2734375)"/>
<path d="M0 0 C6.55249022 3.21936586 10.34839472 8.43714682 14.5625 14.23046875 C15.82749538 15.88079339 17.09801891 17.5269008 18.375 19.16796875 C18.91769531 19.87824219 19.46039062 20.58851563 20.01953125 21.3203125 C21.51358746 23.25244596 21.51358746 23.25244596 23.26171875 24.859375 C24.5625 26.23046875 24.5625 26.23046875 24.5625 28.23046875 C25.2225 28.23046875 25.8825 28.23046875 26.5625 28.23046875 C27.73984756 29.37318844 28.91097843 30.52283228 30.0546875 31.69921875 C37.95996455 39.72737576 47.34932544 45.82942645 56.5625 52.23046875 C71.84674224 62.88758662 86.43631923 73.65586487 99.87451172 86.60986328 C101.35162164 88.02800844 102.84810454 89.4259187 104.34765625 90.8203125 C114.66032181 100.64267701 122.15865993 111.95426909 128.8125 124.48046875 C129.54811157 125.85682495 129.54811157 125.85682495 130.29858398 127.26098633 C130.96289429 128.5529895 130.96289429 128.5529895 131.640625 129.87109375 C132.03668945 130.63969727 132.43275391 131.40830078 132.84082031 132.20019531 C133.5625 134.23046875 133.5625 134.23046875 132.5625 137.23046875 C129.8606335 135.04324349 128.84682229 132.66373209 127.5546875 129.5 C123.58359219 120.41651033 118.50127396 112.4276304 112.3828125 104.69140625 C110.5625 102.23046875 110.5625 102.23046875 109.5625 99.23046875 C108.9025 99.23046875 108.2425 99.23046875 107.5625 99.23046875 C106.1171875 97.76171875 106.1171875 97.76171875 104.4375 95.73046875 C99.94560342 90.44920122 95.35710441 85.09353836 89.5625 81.23046875 C89.5625 80.57046875 89.5625 79.91046875 89.5625 79.23046875 C89.03785156 79.00359375 88.51320313 78.77671875 87.97265625 78.54296875 C84.7217952 76.77264572 81.89907633 74.51320602 79 72.23046875 C75.90442668 69.80934996 72.83523406 67.41229145 69.5625 65.23046875 C69.5625 64.57046875 69.5625 63.91046875 69.5625 63.23046875 C69.00820313 63.13765625 68.45390625 63.04484375 67.8828125 62.94921875 C64.94317023 62.03862249 62.92117613 60.53947465 60.4375 58.73046875 C57.11780546 56.28564532 57.11780546 56.28564532 53.5625 54.23046875 C53.5625 53.57046875 53.5625 52.91046875 53.5625 52.23046875 C52.83933594 51.97007812 52.11617187 51.7096875 51.37109375 51.44140625 C35.57971521 44.63288421 20.85455101 28.76903375 11.265625 14.94921875 C6.80815542 8.61653783 3.35535998 3.99245731 -4.4375 2.23046875 C-9.89448704 1.57186687 -13.62562412 2.59755553 -18.4375 5.23046875 C-22.61803956 9.63698342 -24.68404156 13.34478569 -24.69921303 19.42348862 C-24.70667852 20.47995488 -24.71414401 21.53642114 -24.72183573 22.62490153 C-24.719901 23.7844256 -24.71796626 24.94394968 -24.7159729 26.13861084 C-24.7246615 27.98746128 -24.7246615 27.98746128 -24.73352563 29.87366223 C-24.7476071 33.29655865 -24.75275732 36.71925982 -24.75417423 40.14217114 C-24.75786503 43.83268404 -24.77301889 47.52315175 -24.78678894 51.21363831 C-24.80907569 57.60820799 -24.82408045 64.00276163 -24.83415604 70.39736176 C-24.84873417 79.64290336 -24.87426855 88.88838909 -24.90248732 98.13389793 C-24.94797106 113.1336841 -24.98457932 128.1334783 -25.015625 143.13330078 C-25.04580407 157.70525525 -25.08015138 172.27719004 -25.12011719 186.84912109 C-25.12257874 187.74715587 -25.12504028 188.64519064 -25.12757643 189.57043859 C-25.1399509 194.07556169 -25.15240746 198.58068456 -25.16490483 203.08580732 C-25.26849631 240.467334 -25.35769175 277.84888411 -25.4375 315.23046875 C-29.42573725 314.51166825 -32.36573273 313.35594687 -35.9375 311.41796875 C-46.11538586 306.22924263 -56.03133275 303.54278047 -67.4375 303.23046875 C-68.7471875 303.19050781 -70.056875 303.15054687 -71.40625 303.109375 C-104.80252437 302.43088668 -136.22711412 314.13856397 -160.51953125 337.3203125 C-171.4088733 348.015523 -179.98858174 360.28223355 -184.55078125 374.92578125 C-185.50680177 377.41059228 -186.75300129 379.18264679 -188.4375 381.23046875 C-187.94930745 375.10399607 -186.56429658 370.42251389 -183.875 364.91796875 C-183.51784912 364.17667725 -183.16069824 363.43538574 -182.79272461 362.67163086 C-177.60590926 352.20584573 -170.40693822 343.6952651 -162.4375 335.23046875 C-161.88707031 334.61558594 -161.33664062 334.00070312 -160.76953125 333.3671875 C-146.65575518 318.20794653 -125.11021967 308.55840188 -105.4375 303.23046875 C-104.19355469 302.89144531 -102.94960938 302.55242187 -101.66796875 302.203125 C-78.27089774 296.88672248 -55.19259536 299.82073473 -33.4375 309.23046875 C-31.77223757 309.90063534 -30.1058122 310.56793074 -28.4375 311.23046875 C-28.4403479 310.29984798 -28.4403479 310.29984798 -28.44325334 309.35042679 C-28.55518409 272.56610538 -28.64095315 235.7818092 -28.69282665 198.99735231 C-28.69908006 194.57896375 -28.70555168 190.16057554 -28.7121582 185.7421875 C-28.71412553 184.42277512 -28.71412553 184.42277512 -28.7161326 183.07670794 C-28.73787931 168.84088538 -28.77729678 154.60516395 -28.82326398 140.36940135 C-28.87004908 125.75829903 -28.89779974 111.14724962 -28.90794247 96.53607547 C-28.91479738 87.52275181 -28.93643482 78.50971401 -28.97708233 69.49647836 C-29.00354608 63.31275197 -29.0114928 57.129173 -29.00500689 50.94539411 C-29.00180959 47.37949008 -29.00665282 43.81408498 -29.03352737 40.24827003 C-29.06249649 36.37611558 -29.05240829 32.50460551 -29.03877258 28.63235474 C-29.06061889 26.95430274 -29.06061889 26.95430274 -29.08290654 25.2423507 C-29.00814485 17.37576292 -27.37871613 10.52909371 -21.92397958 4.57969487 C-15.41119324 -1.09321493 -8.32722394 -2.6289473 0 0 Z " fill="#269BE9" transform="translate(542.4375,268.76953125)"/>
<path d="M0 0 C0.33 0 0.66 0 1 0 C1.01458252 0.9072583 1.02916504 1.8145166 1.04418945 2.74926758 C2.11455818 63.09461418 9.44909598 123.24604013 34 179 C34.41362793 179.94246582 34.82725586 180.88493164 35.25341797 181.85595703 C47.97590073 210.63377609 62.93262853 237.90067387 82 263 C82.47002441 263.62165039 82.94004883 264.24330078 83.42431641 264.88378906 C94.77214703 279.91274102 94.77214703 279.91274102 107.671875 293.56762695 C109 295 109 295 109 297 C109.66 297 110.32 297 111 297 C112.3046875 298.328125 112.3046875 298.328125 113.875 300.25 C121.19843762 308.85771478 129.38208323 316.70208105 138 324 C138.9796875 324.85722656 139.959375 325.71445312 140.96875 326.59765625 C210.49609759 387.31513684 302.10809606 425.70797831 395 427 C396.29534668 427.02046387 397.59069336 427.04092773 398.92529297 427.06201172 C452.00028628 427.82013983 504.83444868 421.19376416 554.55859375 401.71484375 C557 401 557 401 560 402 C558.68 402.33 557.36 402.66 556 403 C556 403.66 556 404.32 556 405 C552.3353991 406.29757891 548.66796931 407.58697676 545 408.875 C543.97003906 409.23980469 542.94007813 409.60460937 541.87890625 409.98046875 C536.95881346 411.70406814 532.089382 413.33094102 527.01171875 414.51660156 C524.64539756 415.08520787 522.31051462 415.73989389 519.96875 416.40234375 C509.03863254 419.47986179 498.22706879 422.22771766 487 424 C486.21383301 424.1247168 485.42766602 424.24943359 484.61767578 424.37792969 C479.52471795 425.17725072 474.42656047 425.93352456 469.32324219 426.66357422 C467.25794884 426.96264675 465.19516408 427.27892919 463.1328125 427.59765625 C440.64114036 430.91973036 417.68891848 430.24440393 395.01300049 430.01959229 C393.28457223 430.00276971 391.55610538 429.98999919 389.82763672 429.97802734 C363.8811137 429.69532285 337.1132521 425.30381825 312 419 C311.31470215 418.83145508 310.6294043 418.66291016 309.92333984 418.48925781 C302.05160913 416.53863542 294.27636966 414.23398679 286.5 411.9375 C285.66251221 411.69201416 284.82502441 411.44652832 283.9621582 411.19360352 C279.14464346 409.74936514 274.62000236 408.00304156 270 406 C267.77818533 405.22590556 265.54412846 404.49699766 263.30712891 403.76806641 C252.14461377 400.0519529 241.42000467 395.44745553 231 390 C228.70917892 388.87327914 226.41747038 387.74836132 224.125 386.625 C209.86876677 379.48904167 195.88318355 371.393988 183 362 C182.21238281 361.53078125 181.42476562 361.0615625 180.61328125 360.578125 C176.47289271 358.07780068 172.64251974 355.17160049 168.75683594 352.29638672 C167.48394952 351.35711117 166.20818128 350.42173692 164.93066406 349.48876953 C162.71979466 347.87396306 160.51565157 346.25031578 158.3125 344.625 C157.59280029 344.10107666 156.87310059 343.57715332 156.1315918 343.03735352 C155.46554932 342.54291748 154.79950684 342.04848145 154.11328125 341.5390625 C153.51298096 341.09771973 152.91268066 340.65637695 152.29418945 340.20166016 C151.86710693 339.8051123 151.44002441 339.40856445 151 339 C151 338.34 151 337.68 151 337 C150.1646875 336.9071875 150.1646875 336.9071875 149.3125 336.8125 C146.72596619 335.90371785 145.45815285 334.6208335 143.60546875 332.6484375 C139.40868939 328.33933558 134.7875708 324.39230392 130.22485352 320.4765625 C124.77901447 315.78601553 119.64133798 310.83393364 114.5625 305.75 C113.7279126 304.91460693 112.8933252 304.07921387 112.03344727 303.21850586 C97.75549634 288.79801299 97.75549634 288.79801299 94.97265625 282.77734375 C94.06733406 280.64444228 94.06733406 280.64444228 91 280 C89.125 277.8046875 89.125 277.8046875 87 274.875 C86.61626221 274.35091553 86.23252441 273.82683105 85.8371582 273.28686523 C85.00107985 272.14357436 84.16829598 270.99786884 83.33837891 269.85009766 C81.44848781 267.23762141 79.54163235 264.6376978 77.63476562 262.03759766 C76.6900696 260.74836169 75.74727226 259.45773169 74.80664062 258.16552734 C72.86985508 255.5106479 70.92109214 252.90290466 68.84765625 250.3515625 C67.06565952 248.08356666 65.63848784 245.83663376 64.25 243.3125 C63.82203125 242.54550781 63.3940625 241.77851562 62.953125 240.98828125 C62 239 62 239 62 237 C61.34 237 60.68 237 60 237 C59.15885829 235.56705502 58.32734313 234.12845595 57.5 232.6875 C57.0359375 231.88699219 56.571875 231.08648438 56.09375 230.26171875 C55 228 55 228 55 225 C54.34 225 53.68 225 53 225 C48.47827037 216.54269088 43.98651212 208.07317447 39.6875 199.5 C39.37490234 198.87931641 39.06230469 198.25863281 38.74023438 197.61914062 C30.67354574 181.43416407 24.03014315 164.29693514 18.64648438 147.04150391 C17.91832804 144.74209179 17.15348204 142.45609533 16.390625 140.16796875 C3.81098711 101.62189983 -1.77354054 60.50297332 -0.5625 20.0625 C-0.50912559 18.10743924 -0.45638703 16.15236102 -0.40429688 14.19726562 C-0.27684408 9.46461087 -0.1408472 4.73227428 0 0 Z " fill="#0E8EE7" transform="translate(101,487)"/>
<path d="M0 0 C0.33 0 0.66 0 1 0 C1.7265937 8.39619386 -0.23482998 15.93366176 -2.43994141 23.94189453 C-2.97612491 25.91226373 -3.47909842 27.89157984 -3.98046875 29.87109375 C-5.88600584 37.34546576 -8.17621255 44.55814705 -10.84765625 51.79296875 C-11.84012596 54.55506243 -12.70311048 57.30212016 -13.5 60.125 C-14.86886952 64.8280992 -16.69905068 69.2609581 -18.6328125 73.7578125 C-19.56365533 75.96523978 -20.45290309 78.1905656 -21.3046875 80.4296875 C-25.09293047 90.38185124 -29.85791248 99.63916116 -34.92822266 108.99536133 C-35.82599176 110.67453722 -36.68534433 112.37417643 -37.53515625 114.078125 C-39.33825092 117.67469783 -41.2777827 121.18147655 -43.25 124.6875 C-43.6433252 125.38721924 -44.03665039 126.08693848 -44.44189453 126.80786133 C-47.30603053 131.86327579 -50.31825104 136.79973287 -53.4921875 141.66796875 C-54.57539789 143.34329674 -55.59465672 145.06061907 -56.5703125 146.80078125 C-57.04210937 147.52652344 -57.51390625 148.25226563 -58 149 C-58.66 149 -59.32 149 -60 149 C-60.25652344 149.72058594 -60.51304687 150.44117188 -60.77734375 151.18359375 C-62.07347964 154.16926142 -63.61701077 156.45672351 -65.5625 159.0625 C-66.26890625 160.01382813 -66.9753125 160.96515625 -67.703125 161.9453125 C-68.46109375 162.95335937 -69.2190625 163.96140625 -70 165 C-70.80759529 166.08050229 -71.61488387 167.1612339 -72.421875 168.2421875 C-74.60909869 171.16563354 -76.80311131 174.08381442 -79 177 C-79.54011719 177.77472656 -80.08023438 178.54945313 -80.63671875 179.34765625 C-81.08660156 179.89292969 -81.53648437 180.43820312 -82 181 C-82.66 181 -83.32 181 -84 181 C-84.23009766 181.5372168 -84.46019531 182.07443359 -84.69726562 182.62792969 C-86.39170474 185.7132315 -88.56571283 188.29108953 -90.84375 190.953125 C-91.32823608 191.52170227 -91.81272217 192.09027954 -92.31188965 192.67608643 C-97.26519088 198.41787154 -102.52511612 203.82881875 -107.90673828 209.16748047 C-109.50662829 210.7565836 -111.09544414 212.35620375 -112.68359375 213.95703125 C-128.6767692 229.97360294 -128.6767692 229.97360294 -135.24804688 233.05371094 C-137.35878046 233.9356401 -137.35878046 233.9356401 -138 237 C-138.99 237 -139.98 237 -141 237 C-141.18691406 237.55171875 -141.37382813 238.1034375 -141.56640625 238.671875 C-143.65736397 242.06754475 -146.72696509 243.99868141 -149.9375 246.25 C-150.61264648 246.73307617 -151.28779297 247.21615234 -151.98339844 247.71386719 C-153.34926027 248.69114813 -154.71724564 249.66546843 -156.08740234 250.63671875 C-158.66613639 252.47481563 -161.2056284 254.36473479 -163.75 256.25 C-168.18126814 259.47154508 -172.7320756 262.44360037 -177.37890625 265.34375 C-179.81574177 266.88356857 -182.18906404 268.48987365 -184.5625 270.125 C-196.29032258 278 -196.29032258 278 -201 278 C-201 278.66 -201 279.32 -201 280 C-202.17046875 280.58394531 -203.3409375 281.16789062 -204.546875 281.76953125 C-207.22960264 283.11030623 -209.90743048 284.45964672 -212.578125 285.82421875 C-220.18949503 289.69909804 -227.87111669 293.41870899 -235.625 297 C-236.46579102 297.39791748 -237.30658203 297.79583496 -238.17285156 298.20581055 C-242.62358893 300.23387573 -245.99561054 301.51825392 -251 301 C-248.26501235 298.8109204 -245.69515331 297.30111258 -242.45703125 295.9765625 C-241.56113281 295.60241211 -240.66523437 295.22826172 -239.7421875 294.84277344 C-238.77539062 294.4409082 -237.80859375 294.03904297 -236.8125 293.625 C-196.38084266 276.37604326 -159.83468335 252.10508608 -127 223 C-126.03191406 222.1440625 -125.06382812 221.288125 -124.06640625 220.40625 C-112.32496435 209.82780031 -100.65069431 198.84757059 -90.890625 186.38671875 C-89.07612186 184.09609598 -87.16889743 181.95901388 -85.1875 179.8125 C-79.308833 173.25731973 -74.16519313 166.12058767 -69 159 C-68.54753906 158.37770508 -68.09507812 157.75541016 -67.62890625 157.11425781 C-33.54669049 109.85931622 -12.89161989 56.49737565 0 0 Z " fill="#118FE8" transform="translate(913,587)"/>
<path d="M0 0 C6.55249022 3.21936586 10.34839472 8.43714682 14.5625 14.23046875 C15.82749538 15.88079339 17.09801891 17.5269008 18.375 19.16796875 C18.91769531 19.87824219 19.46039062 20.58851563 20.01953125 21.3203125 C21.51358746 23.25244596 21.51358746 23.25244596 23.26171875 24.859375 C24.5625 26.23046875 24.5625 26.23046875 24.5625 28.23046875 C25.2225 28.23046875 25.8825 28.23046875 26.5625 28.23046875 C27.73984756 29.37318844 28.91097843 30.52283228 30.0546875 31.69921875 C37.95996455 39.72737576 47.34932544 45.82942645 56.5625 52.23046875 C71.84674224 62.88758662 86.43631923 73.65586487 99.87451172 86.60986328 C101.35162164 88.02800844 102.84810454 89.4259187 104.34765625 90.8203125 C114.66032181 100.64267701 122.15865993 111.95426909 128.8125 124.48046875 C129.30290771 125.39803955 129.79331543 126.31561035 130.29858398 127.26098633 C130.96289429 128.5529895 130.96289429 128.5529895 131.640625 129.87109375 C132.03668945 130.63969727 132.43275391 131.40830078 132.84082031 132.20019531 C133.5625 134.23046875 133.5625 134.23046875 132.5625 137.23046875 C129.8606335 135.04324349 128.84682229 132.66373209 127.5546875 129.5 C123.58359219 120.41651033 118.50127396 112.4276304 112.3828125 104.69140625 C110.5625 102.23046875 110.5625 102.23046875 109.5625 99.23046875 C108.9025 99.23046875 108.2425 99.23046875 107.5625 99.23046875 C106.1171875 97.76171875 106.1171875 97.76171875 104.4375 95.73046875 C99.94560342 90.44920122 95.35710441 85.09353836 89.5625 81.23046875 C89.5625 80.57046875 89.5625 79.91046875 89.5625 79.23046875 C89.03785156 79.00359375 88.51320313 78.77671875 87.97265625 78.54296875 C84.7217952 76.77264572 81.89907633 74.51320602 79 72.23046875 C75.90442668 69.80934996 72.83523406 67.41229145 69.5625 65.23046875 C69.5625 64.57046875 69.5625 63.91046875 69.5625 63.23046875 C69.00820313 63.13765625 68.45390625 63.04484375 67.8828125 62.94921875 C64.94317023 62.03862249 62.92117613 60.53947465 60.4375 58.73046875 C57.11780546 56.28564532 57.11780546 56.28564532 53.5625 54.23046875 C53.5625 53.57046875 53.5625 52.91046875 53.5625 52.23046875 C52.83933594 51.97007812 52.11617187 51.7096875 51.37109375 51.44140625 C35.57971521 44.63288421 20.85455101 28.76903375 11.265625 14.94921875 C6.80815542 8.61653783 3.35535998 3.99245731 -4.4375 2.23046875 C-9.89448704 1.57186687 -13.62562412 2.59755553 -18.4375 5.23046875 C-21.05846685 7.99310948 -22.89357744 10.756643 -24.4375 14.23046875 C-25.0975 14.23046875 -25.7575 14.23046875 -26.4375 14.23046875 C-26.7675 15.55046875 -27.0975 16.87046875 -27.4375 18.23046875 C-26.89857447 11.49389959 -24.96825472 7.508148 -19.9375 2.98046875 C-13.68610515 -1.39550764 -7.4085721 -2.33892421 0 0 Z " fill="#0E8CE7" transform="translate(542.4375,268.76953125)"/>
<path d="M0 0 C1.31210045 0.56343137 2.62459126 1.12595469 3.9375 1.6875 C4.948125 2.120625 5.95875 2.55375 7 3 C7 3.66 7 4.32 7 5 C6.01 5.33 5.02 5.66 4 6 C2.6419885 5.03377924 1.31319713 4.02629971 0 3 C-4.25644069 1.13104077 -8.63269882 -0.41001328 -13 -2 C-13.80179688 -2.31453125 -14.60359375 -2.6290625 -15.4296875 -2.953125 C-37.96313119 -11.37221385 -68.69608884 -5.68175148 -89.93359375 3.59375 C-115.36447573 15.25632008 -138.5800452 33.46451659 -149.27734375 60.19140625 C-149.9208951 62.01520648 -150.53801164 63.84883735 -151.11328125 65.6953125 C-152.06930177 68.18012353 -153.31550129 69.95217804 -155 72 C-154.51180745 65.87352732 -153.12679658 61.19204514 -150.4375 55.6875 C-150.08034912 54.9462085 -149.72319824 54.20491699 -149.35522461 53.44116211 C-144.16840926 42.97537698 -136.96943822 34.46479635 -129 26 C-128.44957031 25.38511719 -127.89914062 24.77023437 -127.33203125 24.13671875 C-113.21825518 8.97747778 -91.67271967 -0.67206687 -72 -6 C-70.75605469 -6.33902344 -69.51210938 -6.67804687 -68.23046875 -7.02734375 C-44.88157207 -12.33279985 -21.69984509 -9.46902331 0 0 Z " fill="#0B8AE6" transform="translate(509,578)"/>
<path d="M0 0 C0.66 0 1.32 0 2 0 C3.67384048 13.02086677 4.29047641 25.82100396 4.20581055 38.9453125 C4.18738552 41.89331648 4.18530307 44.84100643 4.18554688 47.7890625 C4.13573317 75.01089826 4.13573317 75.01089826 1 84 C0.67 84 0.34 84 0 84 C0 56.28 0 28.56 0 0 Z " fill="#2498E9" transform="translate(920,462)"/>
<path d="M0 0 C0.33 0.99 0.66 1.98 1 3 C1.66 3 2.32 3 3 3 C7.6924457 18.26101708 9.76963232 34.07288663 9 50 C8.67 50 8.34 50 8 50 C7.82871582 48.96182129 7.65743164 47.92364258 7.48095703 46.85400391 C6.8378005 42.95853921 6.19241081 39.06344711 5.54638672 35.16845703 C5.26844482 33.49082164 4.99108806 31.8130892 4.71435547 30.13525391 C2.73728591 17.98911986 2.73728591 17.98911986 0.32763672 5.92333984 C0 4 0 4 0 0 Z " fill="#1790E9" transform="translate(911,409)"/>
<path d="M0 0 C0.99 0.33 1.98 0.66 3 1 C4.25223287 3.81070187 5.31294815 6.53687852 6.3125 9.4375 C6.6130127 10.2833667 6.91352539 11.1292334 7.22314453 12.00073242 C8.16281795 14.66248206 9.0832839 17.3302654 10 20 C10.29406738 20.8465918 10.58813477 21.69318359 10.89111328 22.56542969 C11.72744909 24.97835551 12.55408765 27.39428701 13.375 29.8125 C13.62548096 30.545896 13.87596191 31.27929199 14.1340332 32.03491211 C15.44790033 35.98382544 16.66321865 39.82765332 17 44 C16.34 44.66 15.68 45.32 15 46 C14.72325439 45.16452637 14.44650879 44.32905273 14.16137695 43.46826172 C13.10959834 40.29563337 12.05635593 37.12349813 11.00219727 33.95166016 C10.55078595 32.59247266 10.09991812 31.23310451 9.6496582 29.87353516 C6.85475372 21.43573413 3.97175343 13.04371669 0.90698242 4.69970703 C0 2 0 2 0 0 Z " fill="#1491E8" transform="translate(892,350)"/>
<path d="M0 0 C0.33 0 0.66 0 1 0 C3.06848295 15.42127915 3.38670728 29.59295211 1 45 C-1.37786703 41.27976018 -1.24408174 38.01415144 -1.23046875 33.671875 C-1.23001053 32.9640387 -1.22955231 32.25620239 -1.2290802 31.5269165 C-1.22606489 30.03078534 -1.21820013 28.53465712 -1.20581055 27.03857422 C-1.18767357 24.77169399 -1.18530031 22.50522616 -1.18554688 20.23828125 C-1.16250475 13.40335759 -0.94465635 6.77137213 0 0 Z " fill="#1892E6" transform="translate(682,429)"/>
<path d="M0 0 C0.33 0 0.66 0 1 0 C0.46233949 8.67331302 -0.32257726 17.28945828 -1.26464844 25.92626953 C-2.0192973 32.94165623 -2.56340769 39.95707661 -3 47 C-3.33 47 -3.66 47 -4 47 C-5.48405736 31.99850455 -4.17520714 17.88731456 -2 3 C-1.34 3 -0.68 3 0 3 C0 2.01 0 1.02 0 0 Z " fill="#1391E7" transform="translate(106,438)"/>
<path d="M0 0 C1.25472459 3.76417378 0.55168149 5.2872636 -0.58203125 9.05859375 C-0.93716797 10.24904297 -1.29230469 11.43949219 -1.65820312 12.66601562 C-2.03912109 13.91060547 -2.42003906 15.15519531 -2.8125 16.4375 C-3.18181641 17.67822266 -3.55113281 18.91894531 -3.93164062 20.19726562 C-6.95624289 30.23764189 -6.95624289 30.23764189 -9 34 C-12.12835321 24.82921114 -4.89283641 11.01009918 -2 2 C-1.34 2 -0.68 2 0 2 C0 1.34 0 0.68 0 0 Z " fill="#1891E8" transform="translate(121,378)"/>
<path d="M0 0 C0.33 0 0.66 0 1 0 C1 7.92 1 15.84 1 24 C1.33 24 1.66 24 2 24 C3.10228696 28.40914783 3.07654536 32.48382401 3 37 C-2.32816558 31.67183442 -2.03692417 21.76002479 -2.1875 14.5625 C-2.15180061 9.45034762 -1.29487001 4.93669193 0 0 Z " fill="#0E8BE6" transform="translate(353,651)"/>
<path d="M0 0 C-1.85296835 0.48377991 -3.70744441 0.96178636 -5.5625 1.4375 C-6.59503906 1.70433594 -7.62757813 1.97117187 -8.69140625 2.24609375 C-14.42082418 3.55161637 -19.93599153 4.12471893 -25.80859375 4.09765625 C-27.04931641 4.09443359 -28.29003906 4.09121094 -29.56835938 4.08789062 C-30.84517578 4.07951172 -32.12199219 4.07113281 -33.4375 4.0625 C-35.39333008 4.05573242 -35.39333008 4.05573242 -37.38867188 4.04882812 C-40.59249552 4.03709251 -43.79622363 4.02067363 -47 4 C-47 3.67 -47 3.34 -47 3 C-46.24904053 2.97494385 -45.49808105 2.9498877 -44.72436523 2.92407227 C-41.29526467 2.80745058 -37.86639447 2.68502583 -34.4375 2.5625 C-33.25607422 2.52318359 -32.07464844 2.48386719 -30.85742188 2.44335938 C-20.07298138 2.28638088 -20.07298138 2.28638088 -10 -1 C-5.75071136 -2.06232216 -3.78485899 -2.12082616 0 0 Z " fill="#0587E5" transform="translate(472,733)"/>
<path d="M0 0 C0.66 0 1.32 0 2 0 C2.39632989 3.37284823 2.76320925 6.74828636 3.125 10.125 C3.23714844 11.07632812 3.34929688 12.02765625 3.46484375 13.0078125 C4.00615293 18.20438062 4.22409789 22.10698465 2 27 C1.67 27 1.34 27 1 27 C0.24258075 17.97859571 -0.13534286 9.05293337 0 0 Z " fill="#108EE8" transform="translate(920,462)"/>
<path d="M0 0 C3.70831663 -0.02918874 7.41660342 -0.04686218 11.125 -0.0625 C12.17171875 -0.07087891 13.2184375 -0.07925781 14.296875 -0.08789062 C19.3090905 -0.10375207 24.07665912 -0.08177213 29 1 C29 1.33 29 1.66 29 2 C22.80901966 2.96734068 16.79875666 3.04234583 10.5625 2.6875 C9.86447266 2.65277588 9.16644531 2.61805176 8.44726562 2.58227539 C4.84047276 2.34302246 3.07377986 2.04918657 0 0 Z " fill="#027CE2" transform="translate(456,569)"/>
<path d="M0 0 C-3.89016201 3.89016201 -15.92163447 2.46810381 -21.18066406 2.66748047 C-22.56767356 2.72279066 -23.95442262 2.78504017 -25.34082031 2.85400391 C-27.35673009 2.95418218 -29.3737072 3.03210605 -31.390625 3.109375 C-32.58719727 3.16061523 -33.78376953 3.21185547 -35.01660156 3.26464844 C-38 3 -38 3 -39.91308594 1.49316406 C-40.4511084 0.75404785 -40.4511084 0.75404785 -41 0 C-40.06728271 0.00523682 -39.13456543 0.01047363 -38.17358398 0.01586914 C-34.68659843 0.03299302 -31.1996581 0.04548993 -27.71264648 0.05493164 C-26.2084075 0.05993555 -24.70417332 0.06674073 -23.19995117 0.07543945 C-21.02781991 0.08767884 -18.85575341 0.09326786 -16.68359375 0.09765625 C-14.72764282 0.10551147 -14.72764282 0.10551147 -12.73217773 0.11352539 C-8.966469 0.0710557 -8.966469 0.0710557 -5.14477539 -0.56860352 C-2 -1 -2 -1 0 0 Z " fill="#2095E6" transform="translate(459,734)"/>
<path d="M0 0 C0.66 0.33 1.32 0.66 2 1 C1.28621973 9.13709505 -0.32773882 17.01731928 -2 25 C-2.33 25 -2.66 25 -3 25 C-3.48032656 16.28296246 -2.07313419 8.45295786 0 0 Z " fill="#138FE7" transform="translate(110,412)"/>
<path d="M0 0 C1.8185063 5.45551891 -1.76714063 10.93097386 -4 16 C-5.85694502 19.56507564 -7.02688257 21.67562752 -11 23 C-9.28918228 18.44080513 -7.13246287 14.1513801 -4.9375 9.8125 C-4.57333984 9.08869141 -4.20917969 8.36488281 -3.83398438 7.61914062 C-2.89095009 5.74527398 -1.94563115 3.8725575 -1 2 C-0.67 1.34 -0.34 0.68 0 0 Z " fill="#0B86E3" transform="translate(638,527)"/>
<path d="M0 0 C3.40968117 5.91011403 3.13535132 12.26234155 3.0625 18.875 C3.05798828 19.65875 3.05347656 20.4425 3.04882812 21.25 C3.03714093 23.16670014 3.01920908 25.08336048 3 27 C2.67 27 2.34 27 2 27 C0.60950893 17.91214765 -0.30892527 9.21627045 0 0 Z " fill="#1895E9" transform="translate(917,432)"/>
<path d="M0 0 C1.74216797 0.15275391 1.74216797 0.15275391 3.51953125 0.30859375 C4.39996094 0.39238281 5.28039062 0.47617188 6.1875 0.5625 C6.1875 0.8925 6.1875 1.2225 6.1875 1.5625 C3.66730028 1.90135038 1.14651484 2.23370335 -1.375 2.5625 C-2.07947266 2.65789062 -2.78394531 2.75328125 -3.50976562 2.8515625 C-7.98617855 3.42916417 -12.29911238 3.65739383 -16.8125 3.5625 C-16.8125 3.2325 -16.8125 2.9025 -16.8125 2.5625 C-15.1625 2.5625 -13.5125 2.5625 -11.8125 2.5625 C-11.8125 1.9025 -11.8125 1.2425 -11.8125 0.5625 C-7.71524731 -0.47917441 -4.19754776 -0.38159525 0 0 Z " fill="#0A8AE7" transform="translate(464.8125,100.4375)"/>
<path d="M0 0 C2.68387755 2.68387755 3.09546996 5.17101413 4.125 8.8125 C4.47820313 10.03582031 4.83140625 11.25914062 5.1953125 12.51953125 C5.88931765 15.52127195 6.17454331 17.94549201 6 21 C2.49111287 14.12447792 -0.68271635 7.85123805 0 0 Z " fill="#0B8FE4" transform="translate(676,407)"/>
<path d="M0 0 C0 0.66 0 1.32 0 2 C0.99 2.33 1.98 2.66 3 3 C0.64558284 2.85758352 -1.70847484 2.71115192 -4.0625 2.5625 C-5.37347656 2.48128906 -6.68445313 2.40007813 -8.03515625 2.31640625 C-11.73663238 2.02101751 -15.33370448 1.56734612 -19 1 C-19 0.67 -19 0.34 -19 0 C-12.46837378 -1.10914408 -6.56492112 -0.78441153 0 0 Z " fill="#1092E9" transform="translate(476,913)"/>
<path d="M0 0 C0.33 0 0.66 0 1 0 C1.22821192 3.18639766 1.42892029 6.37397656 1.625 9.5625 C1.68945312 10.45775391 1.75390625 11.35300781 1.8203125 12.27539062 C2.13783653 17.69314434 1.83935647 21.88209592 0 27 C-0.33 27 -0.66 27 -1 27 C-1.12224626 17.9401941 -0.83930594 9.02253886 0 0 Z " fill="#0988E6" transform="translate(921,519)"/>
<path d="M0 0 C0.33 0 0.66 0 1 0 C1.14368684 8.71700174 0.71961582 17.31320899 0 26 C-0.33 26 -0.66 26 -1 26 C-1.22328552 22.97961078 -1.42901467 19.95968289 -1.625 16.9375 C-1.68945312 16.08994141 -1.75390625 15.24238281 -1.8203125 14.36914062 C-2.14768288 9.06983265 -1.78150476 5.01133209 0 0 Z " fill="#0787E5" transform="translate(103,459)"/>
<path d="M0 0 C1.32 0.33 2.64 0.66 4 1 C0.7 4.3 -2.6 7.6 -6 11 C-6.66 10.67 -7.32 10.34 -8 10 C-8 9.34 -8 8.68 -8 8 C-7.34 8 -6.68 8 -6 8 C-5.34 6.68 -4.68 5.36 -4 4 C-3.34 4 -2.68 4 -2 4 C-1.34 2.68 -0.68 1.36 0 0 Z " fill="#0F9FEB" transform="translate(222,212)"/>
<path d="M0 0 C0.33 0 0.66 0 1 0 C1.08710289 3.10398978 1.14042309 6.20766548 1.1875 9.3125 C1.21263672 10.19357422 1.23777344 11.07464844 1.26367188 11.98242188 C1.27333984 12.82998047 1.28300781 13.67753906 1.29296875 14.55078125 C1.3086792 15.33106689 1.32438965 16.11135254 1.34057617 16.9152832 C0.91847304 19.49903853 -0.01489942 20.36292167 -2 22 C-1.85811015 19.45805839 -1.71160845 16.91652007 -1.5625 14.375 C-1.52318359 13.66214844 -1.48386719 12.94929687 -1.44335938 12.21484375 C-1.19690319 8.08196318 -0.76529947 4.07730976 0 0 Z " fill="#0C8BE8" transform="translate(919,547)"/>
<path d="M0 0 C0 0.66 0 1.32 0 2 C1.98 2 3.96 2 6 2 C6 2.33 6 2.66 6 3 C0.39258264 3.10103455 -4.94806761 2.76082036 -10.5 2 C-11.22703125 1.90460938 -11.9540625 1.80921875 -12.703125 1.7109375 C-14.46935867 1.47853833 -16.23477406 1.23993362 -18 1 C-18 0.67 -18 0.34 -18 0 C-11.78675502 -0.73030908 -6.15901243 -1.23180249 0 0 Z " fill="#0687E6" transform="translate(569,101)"/>
<path d="M0 0 C1.02826931 3.13667908 0.99386675 4.83184742 -0.21484375 7.890625 C-0.48876953 8.59960938 -0.76269531 9.30859375 -1.04492188 10.0390625 C-1.33947266 10.76867187 -1.63402344 11.49828125 -1.9375 12.25 C-2.37352539 13.36761719 -2.37352539 13.36761719 -2.81835938 14.5078125 C-3.53573722 16.34241814 -4.26657439 18.17175065 -5 20 C-6.29065057 16.1280483 -5.22324098 13.55767399 -4.0625 9.8125 C-3.86720703 9.15830078 -3.67191406 8.50410156 -3.47070312 7.83007812 C-2.98817437 6.21772593 -2.49509795 4.60853711 -2 3 C-1.34 3 -0.68 3 0 3 C0 2.01 0 1.02 0 0 Z " fill="#1996E9" transform="translate(643,515)"/>
<path d="M0 0 C3.7762589 3.76613488 3.5415786 7.72196555 3.6875 12.75 C3.72166016 13.54277344 3.75582031 14.33554687 3.79101562 15.15234375 C3.87319104 17.10107504 3.93828045 19.05051362 4 21 C2.14046922 17.74191457 1.46176194 14.75537475 0.875 11.0625 C0.70742188 10.04285156 0.53984375 9.02320313 0.3671875 7.97265625 C0.03385435 5.27407618 -0.06998996 2.71461065 0 0 Z " fill="#098AE6" transform="translate(914,423)"/>
<path d="M0 0 C3.60001861 1.86207859 4.53489703 3.98986608 5.75 7.6875 C6.17985483 9.12111159 6.60082968 10.55754362 7 12 C6.34 12.66 5.68 13.32 5 14 C4.15973604 12.23244474 3.32801278 10.46082737 2.5 8.6875 C2.0359375 7.70136719 1.571875 6.71523438 1.09375 5.69921875 C0 3 0 3 0 0 Z " fill="#0C8AE4" transform="translate(636,433)"/>
<path d="M0 0 C3.71428571 1.42857143 3.71428571 1.42857143 5 4 C3.06115111 3.71743908 1.12394039 3.4236207 -0.8125 3.125 C-1.89144531 2.96257813 -2.97039062 2.80015625 -4.08203125 2.6328125 C-7 2 -7 2 -10 0 C-6.761534 -1.619233 -3.43589987 -0.66676869 0 0 Z " fill="#1094E9" transform="translate(439,908)"/>
<path d="M0 0 C0.33 0 0.66 0 1 0 C1.09507063 6.43311296 1.15316726 12.65758005 0 19 C-1.85064319 15.87703962 -2.29356154 13.62059232 -2 10 C-1.67 9.67 -1.34 9.34 -1 9 C-0.76807135 7.48530552 -0.58784762 5.96245438 -0.4375 4.4375 C-0.35371094 3.61121094 -0.26992188 2.78492188 -0.18359375 1.93359375 C-0.12300781 1.29550781 -0.06242188 0.65742188 0 0 Z " fill="#0787E4" transform="translate(683,455)"/>
<path d="M0 0 C1.31534494 3.65857532 0.65468309 6.08026481 -0.4375 9.75 C-0.86869141 11.22726562 -0.86869141 11.22726562 -1.30859375 12.734375 C-1.53675781 13.48203125 -1.76492187 14.2296875 -2 15 C-3.84718509 11.85702835 -4.06026467 11.28123511 -3.25 7.5 C-2.30497605 4.85393294 -1.36804361 2.44293501 0 0 Z " fill="#0989E7" transform="translate(115,397)"/>
<path d="M0 0 C4.81033104 2.54664585 8.32442148 4.99027798 12 9 C6.80474854 7.6393389 3.82444243 5.64232612 0 2 C0 1.34 0 0.68 0 0 Z " fill="#0887E5" transform="translate(577,306)"/>
<path d="M0 0 C0.66 0 1.32 0 2 0 C2 0.99 2 1.98 2 3 C2.8971875 3.37125 2.8971875 3.37125 3.8125 3.75 C6.28647521 5.16370012 7.43370255 6.65055383 9 9 C8.67 9.66 8.34 10.32 8 11 C4.83225176 8.60278512 2.09057683 6.41094114 0 3 C0 2.01 0 1.02 0 0 Z " fill="#1B98EB" transform="translate(830,245)"/>
<path d="M0 0 C2.9244745 2.63202705 5.02154932 5.60837026 7 9 C6.67 9.99 6.34 10.98 6 12 C1.6409923 8.51279384 1.05447817 5.27239085 0 0 Z " fill="#1898E9" transform="translate(864,292)"/>
<path d="M0 0 C4.47238653 1.41807378 8.71146306 3.11304374 13 5 C13 5.33 13 5.66 13 6 C8.73052871 5.49770926 4.83163192 5.02851102 1 3 C0.67 2.01 0.34 1.02 0 0 Z " fill="#0787E5" transform="translate(335,876)"/>
<path d="M0 0 C6.70126536 -0.48736475 11.06561592 0.92291196 17 4 C13.02623171 5.56393356 10.18622097 4.36145292 6.25 3.0625 C4.49429688 2.49208984 4.49429688 2.49208984 2.703125 1.91015625 C1.81109375 1.60980469 0.9190625 1.30945313 0 1 C0 0.67 0 0.34 0 0 Z " fill="#0688E7" transform="translate(623,114)"/>
<path d="M0 0 C0.33 0 0.66 0 1 0 C1.05449838 1.72880982 1.09301688 3.45812712 1.125 5.1875 C1.14820313 6.15042969 1.17140625 7.11335937 1.1953125 8.10546875 C0.9913544 11.12812778 0.26874632 13.26769985 -1 16 C-1.33 16 -1.66 16 -2 16 C-1.85764543 14.27054347 -1.71095618 12.54144346 -1.5625 10.8125 C-1.48128906 9.84957031 -1.40007813 8.88664063 -1.31640625 7.89453125 C-1.02333849 5.21350398 -0.57296246 2.6337014 0 0 Z " fill="#0989E5" transform="translate(916,570)"/>
<path d="M0 0 C0.99 0.33 1.98 0.66 3 1 C4.62323754 4.75907641 5.23994929 7.92086213 5 12 C2.65085508 9.65085508 2.26859643 8.04320554 1.375 4.875 C1.11460937 3.96492188 0.85421875 3.05484375 0.5859375 2.1171875 C0.39257812 1.41851562 0.19921875 0.71984375 0 0 Z " fill="#0C8CE7" transform="translate(892,350)"/>
<path d="M0 0 C0.33 0 0.66 0 1 0 C1 3.63 1 7.26 1 11 C0.01 10.67 -0.98 10.34 -2 10 C-1.85950482 8.52031676 -1.71245174 7.04125484 -1.5625 5.5625 C-1.48128906 4.73878906 -1.40007813 3.91507812 -1.31640625 3.06640625 C-1 1 -1 1 0 0 Z " fill="#0685E5" transform="translate(647,492)"/>
<path d="M0 0 C4.05281712 1.22527029 7.44360764 2.69880494 11 5 C9 6 9 6 7.08984375 5.546875 C6.37957031 5.28390625 5.66929687 5.0209375 4.9375 4.75 C4.22464844 4.49734375 3.51179688 4.2446875 2.77734375 3.984375 C1 3 1 3 0 0 Z " fill="#0786E4" transform="translate(313,865)"/>
<path d="M0 0 C1.27875 0.28875 2.5575 0.5775 3.875 0.875 C4.95394531 1.11863281 4.95394531 1.11863281 6.0546875 1.3671875 C8 2 8 2 10 4 C10 4.66 10 5.32 10 6 C6.40992874 4.66654496 3.20429093 3.1056769 0 1 C0 0.67 0 0.34 0 0 Z " fill="#1194ED" transform="translate(304,861)"/>
<path d="M0 0 C2.61724095 2.36797991 4.32861729 4.89600354 6 8 C6 8.66 6 9.32 6 10 C4.125 9.5 4.125 9.5 2 8 C1.01505446 5.34822355 0.54087618 2.79452693 0 0 Z " fill="#108CE6" transform="translate(155,709)"/>
<path d="M0 0 C0 4.24645065 -1.81750806 6.38524772 -4 10 C-4.33 9.34 -4.66 8.68 -5 8 C-2.51612903 1.25806452 -2.51612903 1.25806452 0 0 Z " fill="#1898EC" transform="translate(867,713)"/>
<path d="M0 0 C2.18742014 3.2811302 2.54442806 5.33084356 3.125 9.1875 C3.29257813 10.27417969 3.46015625 11.36085938 3.6328125 12.48046875 C3.75398438 13.31191406 3.87515625 14.14335938 4 15 C3.34 14.67 2.68 14.34 2 14 C1.40234375 12.00390625 1.40234375 12.00390625 0.9375 9.5625 C0.2855699 6.17525953 0.2855699 6.17525953 -1 3 C-0.67 2.01 -0.34 1.02 0 0 Z " fill="#0587E7" transform="translate(108,580)"/>
<path d="M0 0 C1.65 0.33 3.3 0.66 5 1 C2.50494038 3.49505962 1.32671112 3.35948376 -2.125 3.625 C-3.03507813 3.69976563 -3.94515625 3.77453125 -4.8828125 3.8515625 C-5.93082031 3.92503906 -5.93082031 3.92503906 -7 4 C-4.35261084 2.5393715 -3.10551666 2 0 2 C0 1.34 0 0.68 0 0 Z " fill="#149DEC" transform="translate(605,904)"/>
<path d="M0 0 C2.0625 2.125 2.0625 2.125 4 5 C3.75 8.3125 3.75 8.3125 3 11 C0.43383368 7.15075052 0.44902324 4.5650696 0 0 Z " fill="#038CE6" transform="translate(908,397)"/>
<path d="M0 0 C0.66 0 1.32 0 2 0 C5 5.625 5 5.625 5 9 C4.34 9 3.68 9 3 9 C2.01 6.03 1.02 3.06 0 0 Z " fill="#1C9BED" transform="translate(877,316)"/>
<path d="M0 0 C2.97 1.65 5.94 3.3 9 5 C9 5.33 9 5.66 9 6 C6.75 6.25 6.75 6.25 4 6 C1.6875 4.125 1.6875 4.125 0 2 C0 1.34 0 0.68 0 0 Z " fill="#129DEC" transform="translate(735,161)"/>
<path d="M0 0 C2.3125 0.1875 2.3125 0.1875 5 1 C6.8125 3.5625 6.8125 3.5625 8 6 C4.63408134 4.55746343 2.48952921 2.66735273 0 0 Z " fill="#1B96EA" transform="translate(252,825)"/>
<path d="M0 0 C0 3 0 3 -2.5 5.6875 C-3.325 6.450625 -4.15 7.21375 -5 8 C-4.25 3.25 -4.25 3.25 -2 1 C-1.34 0.67 -0.68 0.34 0 0 Z " fill="#0F8CE7" transform="translate(187,254)"/>
<path d="M0 0 C1.98 1.65 3.96 3.3 6 5 C5.67 5.66 5.34 6.32 5 7 C2 6 2 6 0 3 C0 2.01 0 1.02 0 0 Z " fill="#1B98EA" transform="translate(818,231)"/>
<path d="M0 0 C0.33 0.66 0.66 1.32 1 2 C-2.99560608 4.83022097 -6.42737323 3.76210446 -11 3 C-11 2.67 -11 2.34 -11 2 C-5.555 1.01 -5.555 1.01 0 0 Z " fill="#2599E8" transform="translate(452,101)"/>
<path d="M0 0 C1.11651815 3.34955444 0.99822121 4.67259596 0 8 C-1.546875 9.65625 -1.546875 9.65625 -3 11 C-2.69078116 9.54096742 -2.37751201 8.08279278 -2.0625 6.625 C-1.88847656 5.81289063 -1.71445312 5.00078125 -1.53515625 4.1640625 C-1 2 -1 2 0 0 Z " fill="#058EE7" transform="translate(897,645)"/>
<path d="M0 0 C2.5 2.3125 2.5 2.3125 5 5 C5 5.99 5 6.98 5 8 C2.5 6.25 2.5 6.25 0 4 C0 2.68 0 1.36 0 0 Z " fill="#1499EA" transform="translate(850,271)"/>
</svg>
