<svg id="svg" version="1.1" xmlns="http://www.w3.org/2000/svg" xmlns:xlink="http://www.w3.org/1999/xlink" width="400" height="400" viewBox="0, 0, 400,400"><g id="svgg"><path id="path0" d="M19.937 75.667 C 19.132 76.133,18.247 76.939,17.969 77.458 C 17.692 77.976,17.315 78.400,17.132 78.400 C 16.950 78.400,16.800 78.760,16.800 79.200 C 16.800 79.640,16.620 80.000,16.400 80.000 C 16.137 80.000,16.000 88.933,16.000 106.000 C 16.000 121.935,16.145 132.000,16.375 132.000 C 16.582 132.000,16.875 132.855,17.027 133.900 C 17.506 137.186,19.155 139.469,21.871 140.604 C 24.039 141.510,375.961 141.510,378.129 140.604 C 380.830 139.475,382.517 137.154,382.919 134.009 C 383.045 133.023,383.340 132.153,383.574 132.075 C 384.150 131.883,384.176 80.000,383.600 80.000 C 383.380 80.000,383.200 79.640,383.200 79.200 C 383.200 78.760,383.020 78.400,382.800 78.400 C 382.580 78.400,382.394 78.175,382.388 77.900 C 382.381 77.625,381.598 76.815,380.648 76.100 L 378.922 74.800 200.161 74.809 L 21.400 74.818 19.937 75.667 M72.200 167.401 C 68.797 168.605,66.445 172.602,66.954 176.317 C 67.278 178.684,68.711 180.579,74.569 186.394 C 77.336 189.141,79.600 191.581,79.600 191.816 C 79.600 192.051,77.208 194.574,74.284 197.422 C 67.270 204.253,66.995 204.662,67.021 208.200 C 67.056 213.077,70.249 216.400,74.897 216.400 C 78.330 216.400,79.567 215.474,89.542 205.435 C 103.483 191.403,103.487 192.300,89.422 178.053 C 77.956 166.438,76.852 165.755,72.200 167.401 M114.200 200.477 C 107.741 202.767,106.719 211.975,112.546 215.389 L 114.270 216.400 133.086 216.400 C 153.885 216.400,153.639 216.427,155.900 213.853 C 159.377 209.892,158.313 203.392,153.800 201.036 C 151.946 200.067,116.756 199.570,114.200 200.477 " stroke="none" fill="#c0dede" fill-rule="evenodd"></path><path id="path1" d="M16.002 228.000 C 16.005 288.540,16.142 320.000,16.403 320.000 C 16.622 320.000,16.800 320.360,16.800 320.800 C 16.800 321.240,16.980 321.600,17.200 321.600 C 17.420 321.600,17.600 321.796,17.600 322.036 C 17.600 322.637,19.140 323.926,20.687 324.622 C 22.633 325.496,377.367 325.496,379.313 324.622 C 381.091 323.823,382.145 322.824,382.821 321.298 C 383.137 320.584,383.530 320.000,383.694 320.000 C 383.859 320.000,383.996 278.600,383.998 228.000 C 384.002 166.674,383.869 136.000,383.602 136.000 C 383.381 136.000,383.200 136.261,383.200 136.580 C 383.200 138.252,379.207 141.208,375.923 141.967 C 373.264 142.580,26.736 142.580,24.077 141.967 C 20.793 141.208,16.800 138.252,16.800 136.580 C 16.800 136.261,16.619 136.000,16.398 136.000 C 16.131 136.000,15.998 166.674,16.002 228.000 M78.247 166.864 C 80.866 168.095,98.289 185.500,99.517 188.112 C 100.560 190.331,100.651 192.893,99.763 195.051 C 99.048 196.790,82.665 213.585,79.600 215.722 C 75.913 218.293,70.447 217.146,67.900 213.268 C 64.380 207.907,65.213 205.524,73.434 197.440 L 79.301 191.672 73.651 186.165 C 64.845 177.583,63.895 174.084,68.986 168.982 C 71.983 165.979,74.930 165.305,78.247 166.864 M153.888 200.435 C 155.697 201.434,156.807 202.577,157.547 204.200 C 157.847 204.860,158.252 205.713,158.447 206.095 C 158.927 207.039,158.895 209.894,158.400 210.200 C 158.180 210.336,158.000 210.806,158.000 211.245 C 158.000 212.415,156.299 214.720,154.538 215.938 L 153.000 217.000 133.800 217.000 C 123.240 217.000,114.110 216.863,113.512 216.695 C 112.179 216.322,109.200 213.559,109.200 212.695 C 109.200 212.350,109.012 212.004,108.783 211.928 C 108.540 211.847,108.362 210.437,108.358 208.550 C 108.348 204.080,109.314 202.359,112.975 200.317 C 115.067 199.150,151.753 199.256,153.888 200.435 " stroke="none" fill="#4c4c4c" fill-rule="evenodd"></path><path id="path2" d="M16.000 135.600 C 16.000 135.820,16.180 136.000,16.400 136.000 C 16.620 136.000,16.800 136.240,16.800 136.533 C 16.800 136.827,17.443 137.772,18.229 138.633 L 19.658 140.200 18.469 138.600 C 17.816 137.720,17.161 136.595,17.014 136.100 C 16.748 135.205,16.000 134.836,16.000 135.600 M382.986 136.100 C 382.839 136.595,382.184 137.720,381.531 138.600 L 380.342 140.200 381.771 138.633 C 382.557 137.772,383.200 136.827,383.200 136.533 C 383.200 136.240,383.380 136.000,383.600 136.000 C 383.820 136.000,384.000 135.820,384.000 135.600 C 384.000 134.836,383.252 135.205,382.986 136.100 M24.400 142.000 C 25.707 142.419,374.293 142.419,375.600 142.000 C 376.150 141.824,297.130 141.680,200.000 141.680 C 102.870 141.680,23.850 141.824,24.400 142.000 M73.633 166.147 C 73.725 166.228,74.679 166.388,75.754 166.504 C 76.949 166.632,77.493 166.578,77.154 166.363 C 76.635 166.035,73.271 165.828,73.633 166.147 M71.400 167.027 C 69.158 168.189,65.782 172.315,66.492 173.025 C 66.580 173.114,66.952 172.506,67.319 171.674 C 68.132 169.833,69.704 168.275,71.815 167.223 C 72.687 166.788,73.220 166.426,73.000 166.418 C 72.780 166.411,72.060 166.685,71.400 167.027 M66.109 175.200 C 66.109 176.190,66.187 176.595,66.282 176.100 C 66.378 175.605,66.378 174.795,66.282 174.300 C 66.187 173.805,66.109 174.210,66.109 175.200 M71.000 183.600 C 72.750 185.360,74.271 186.800,74.381 186.800 C 74.491 186.800,73.150 185.360,71.400 183.600 C 69.650 181.840,68.129 180.400,68.019 180.400 C 67.909 180.400,69.250 181.840,71.000 183.600 M100.124 191.800 C 100.126 193.120,100.201 193.612,100.290 192.893 C 100.379 192.174,100.377 191.094,100.286 190.493 C 100.195 189.892,100.122 190.480,100.124 191.800 M99.200 195.599 C 99.200 195.891,94.928 200.466,89.708 205.765 L 80.215 215.400 89.134 206.600 C 98.033 197.820,99.904 195.771,99.444 195.310 C 99.310 195.176,99.200 195.306,99.200 195.599 M120.800 199.889 C 138.767 200.168,153.107 200.173,152.938 199.900 C 152.836 199.735,143.988 199.641,133.276 199.690 C 122.564 199.740,116.950 199.829,120.800 199.889 M158.200 208.198 C 158.200 209.365,158.335 210.238,158.500 210.137 C 158.665 210.035,158.800 209.164,158.800 208.200 C 158.800 207.236,158.665 206.364,158.500 206.262 C 158.335 206.160,158.200 207.031,158.200 208.198 M66.109 208.000 C 66.109 208.990,66.187 209.395,66.282 208.900 C 66.378 208.405,66.378 207.595,66.282 207.100 C 66.187 206.605,66.109 207.010,66.109 208.000 M112.400 216.200 C 112.950 216.514,113.760 216.770,114.200 216.768 C 114.640 216.766,114.280 216.505,113.400 216.188 C 111.396 215.466,111.122 215.470,112.400 216.200 M74.305 217.083 C 74.802 217.179,75.522 217.175,75.905 217.075 C 76.287 216.975,75.880 216.896,75.000 216.901 C 74.120 216.905,73.807 216.987,74.305 217.083 M124.100 217.100 C 129.105 217.163,137.295 217.163,142.300 217.100 C 147.305 217.036,143.210 216.984,133.200 216.984 C 123.190 216.984,119.095 217.036,124.100 217.100 " stroke="none" fill="#747c7c" fill-rule="evenodd"></path><path id="path3" d="M89.000 177.200 C 93.616 181.820,97.483 185.600,97.593 185.600 C 97.703 185.600,94.016 181.820,89.400 177.200 C 84.784 172.580,80.917 168.800,80.807 168.800 C 80.697 168.800,84.384 172.580,89.000 177.200 M69.578 201.500 L 68.200 203.000 69.700 201.622 C 70.525 200.863,71.200 200.188,71.200 200.122 C 71.200 199.816,70.862 200.104,69.578 201.500 " stroke="none" fill="#848484" fill-rule="evenodd"></path><path id="path4" d="M16.000 133.351 C 16.000 134.094,16.270 134.926,16.600 135.200 C 17.293 135.775,17.370 135.348,16.950 133.250 C 16.617 131.587,16.000 131.653,16.000 133.351 M383.052 132.900 C 382.565 134.719,382.728 135.729,383.400 135.057 C 384.041 134.416,384.236 132.000,383.647 132.000 C 383.452 132.000,383.185 132.405,383.052 132.900 M111.500 141.500 C 160.175 141.556,239.825 141.556,288.500 141.500 C 337.175 141.444,297.350 141.398,200.000 141.398 C 102.650 141.398,62.825 141.444,111.500 141.500 M73.221 166.779 C 72.846 167.016,73.270 167.065,74.421 166.918 C 75.399 166.792,76.275 166.625,76.367 166.545 C 76.742 166.219,73.755 166.440,73.221 166.779 M88.800 177.400 C 93.966 182.570,98.284 186.800,98.394 186.800 C 98.504 186.800,94.366 182.570,89.200 177.400 C 84.034 172.230,79.716 168.000,79.606 168.000 C 79.496 168.000,83.634 172.230,88.800 177.400 M66.652 173.300 C 66.342 174.455,66.380 176.407,66.728 177.285 C 66.878 177.662,67.000 176.717,67.000 175.185 C 67.000 172.080,66.992 172.034,66.652 173.300 M73.994 186.100 C 76.961 189.125,79.436 191.600,79.494 191.600 C 79.781 191.600,79.209 191.006,74.100 185.994 L 68.600 180.600 73.994 186.100 M76.987 194.500 L 74.600 197.000 77.100 194.613 C 79.422 192.395,79.783 192.000,79.487 192.000 C 79.426 192.000,78.301 193.125,76.987 194.500 M99.646 192.867 C 99.621 193.234,99.496 193.864,99.370 194.267 C 99.152 194.962,99.163 194.963,99.597 194.287 C 99.848 193.896,99.973 193.266,99.873 192.887 C 99.711 192.268,99.688 192.266,99.646 192.867 M94.987 200.100 L 92.600 202.600 95.100 200.213 C 97.422 197.995,97.783 197.600,97.487 197.600 C 97.426 197.600,96.301 198.725,94.987 200.100 M111.287 201.900 C 110.330 202.835,110.314 202.881,111.181 202.206 C 112.888 200.876,112.969 200.800,112.686 200.800 C 112.536 200.800,111.906 201.295,111.287 201.900 M108.528 208.400 C 108.528 209.830,108.601 210.415,108.689 209.700 C 108.778 208.985,108.778 207.815,108.689 207.100 C 108.601 206.385,108.528 206.970,108.528 208.400 M66.428 208.033 C 66.444 208.785,66.612 209.760,66.803 210.200 C 67.026 210.715,67.067 210.287,66.918 209.000 C 66.644 206.622,66.389 206.119,66.428 208.033 M82.185 212.900 L 80.200 215.000 82.300 213.015 C 83.455 211.923,84.400 210.978,84.400 210.915 C 84.400 210.617,84.029 210.949,82.185 212.900 M155.625 214.169 L 154.250 215.800 155.805 214.313 C 156.660 213.496,157.279 212.762,157.180 212.683 C 157.081 212.603,156.381 213.272,155.625 214.169 M74.305 216.683 C 74.802 216.779,75.522 216.775,75.905 216.675 C 76.287 216.575,75.880 216.496,75.000 216.501 C 74.120 216.505,73.807 216.587,74.305 216.683 M124.527 216.700 C 129.547 216.763,137.647 216.763,142.527 216.700 C 147.407 216.636,143.300 216.584,133.400 216.584 C 123.500 216.584,119.507 216.636,124.527 216.700 " stroke="none" fill="#9c9c9c" fill-rule="evenodd"></path></g></svg>