<?xml version="1.0" encoding="UTF-8"?>
<svg version="1.1" xmlns="http://www.w3.org/2000/svg" width="225" height="225">
<path d="M0 0 C0.83015625 0.73476563 1.6603125 1.46953125 2.515625 2.2265625 C21.29629462 19.88511664 33.23122281 45.23808951 34.203125 71.05859375 C34.66398045 96.82833912 26.90416117 119.55179279 11 140 C10.23429687 140.99773437 10.23429687 140.99773437 9.453125 142.015625 C8.35993399 143.39175957 7.18917023 144.70590298 6 146 C5.34 146 4.68 146 4 146 C3.67 146.99 3.34 147.98 3 149 C1.13910933 150.67094329 -0.69664191 152.18659312 -2.6875 153.6875 C-3.26983398 154.12739258 -3.85216797 154.56728516 -4.45214844 155.02050781 C-26.76830225 171.53374523 -53.16963505 178.69492631 -80.79296875 175.10107422 C-108.63319009 170.8404796 -132.42844483 154.62868176 -150 133 C-166.53591718 110.48258821 -172.97967737 84.01205585 -169.67919922 56.30712891 C-166.68325029 37.85455891 -159.17045207 21.16892113 -147 7 C-146.32195312 6.17628906 -145.64390625 5.35257813 -144.9453125 4.50390625 C-129.78685946 -13.29200657 -108.05161306 -24.57766154 -85 -28 C-84.28585938 -28.12246094 -83.57171875 -28.24492187 -82.8359375 -28.37109375 C-52.06022767 -32.6543111 -22.66167139 -20.12081733 0 0 Z " fill="#707CBF" transform="translate(183,41)"/>
<path d="M0 0 C0.83015625 0.73476563 1.6603125 1.46953125 2.515625 2.2265625 C21.29629462 19.88511664 33.23122281 45.23808951 34.203125 71.05859375 C34.66398045 96.82833912 26.90416117 119.55179279 11 140 C10.23429687 140.99773437 10.23429687 140.99773437 9.453125 142.015625 C8.35993399 143.39175957 7.18917023 144.70590298 6 146 C5.34 146 4.68 146 4 146 C3.67 146.99 3.34 147.98 3 149 C1.13910933 150.67094329 -0.69664191 152.18659312 -2.6875 153.6875 C-3.26983398 154.12739258 -3.85216797 154.56728516 -4.45214844 155.02050781 C-26.76830225 171.53374523 -53.16963505 178.69492631 -80.79296875 175.10107422 C-108.63319009 170.8404796 -132.42844483 154.62868176 -150 133 C-166.53591718 110.48258821 -172.97967737 84.01205585 -169.67919922 56.30712891 C-166.68325029 37.85455891 -159.17045207 21.16892113 -147 7 C-146.32195312 6.17628906 -145.64390625 5.35257813 -144.9453125 4.50390625 C-129.78685946 -13.29200657 -108.05161306 -24.57766154 -85 -28 C-84.28585938 -28.12246094 -83.57171875 -28.24492187 -82.8359375 -28.37109375 C-52.06022767 -32.6543111 -22.66167139 -20.12081733 0 0 Z M-119 -2 C-119.72058594 -1.50113281 -120.44117188 -1.00226562 -121.18359375 -0.48828125 C-139.41357332 12.93236324 -153.65610609 32.31507702 -157.33886719 55.09619141 C-160.28351768 79.00444798 -157.00590647 103.43928616 -142 123 C-139.12703825 126.46521788 -136.10754181 129.74525884 -133 133 C-132.40960938 133.67675781 -131.81921875 134.35351562 -131.2109375 135.05078125 C-118.58536919 148.92778255 -98.53840965 157.75742552 -80 159 C-55.15108901 160.07970379 -32.93263251 155.42639903 -13.8125 138.5625 C-12.2004987 137.04997346 -10.59595076 135.52945281 -9 134 C-8.2884375 133.35160156 -7.576875 132.70320312 -6.84375 132.03515625 C7.77327927 118.2895268 16.55995521 97.14316983 17.1875 77.25 C17.64915513 52.2611313 11.75436396 30.77486677 -5.7890625 12.2734375 C-6.51867187 11.52320312 -7.24828125 10.77296875 -8 10 C-8.64710938 9.29101562 -9.29421875 8.58203125 -9.9609375 7.8515625 C-22.92128358 -5.95517353 -43.39389688 -15.20108095 -62.2734375 -16.109375 C-82.80020698 -16.75690716 -101.81848151 -13.96948819 -119 -2 Z " fill="#F0F0F0" transform="translate(183,41)"/>
<path d="M0 0 C0.66 0.33 1.32 0.66 2 1 C1.40832031 1.4125 0.81664062 1.825 0.20703125 2.25 C-6.91122384 7.45224842 -12.09454602 13.16562243 -14 22 C-14.97918457 31.37004316 -13.1935818 40.14806297 -7.5 47.8125 C-1.36122104 54.16613623 6.37316363 57.34852587 15.125 57.625 C24.76886669 57.15716082 32.34746099 54.05839683 39 47 C39.69996094 45.91912109 39.69996094 45.91912109 40.4140625 44.81640625 C42 43 42 43 44.05859375 42.65234375 C57.22006652 44.22999155 68.2190024 50.04203404 76.75 60.1875 C84.06507353 70.08836696 86.87044494 80.88630786 86 93 C85.22057563 96.74758114 84.20142899 100.36710758 83 104 C81.95829545 100.67907722 82.0758287 97.95261659 82.3125 94.5 C82.370873 86.54181461 79.4333874 80.16016284 74.39453125 74.0546875 C68.15381439 68.15491242 60.57461035 65.78490392 52.125 65.375 C43.74402509 65.65770971 36.87996936 68.25120399 30.8046875 74.12109375 C24.85439581 81.30376803 22.47211984 87.95358263 22.69140625 97.25390625 C23.08581988 100.7636883 24.1590916 103.78114262 25.375 107.078125 C26.28782405 109.88505895 26.21008848 111.29509635 25 114 C19.77121309 122.19110345 10.32714293 128.19314773 0.984375 130.55859375 C-12.28960607 132.521892 -24.5621237 131.74446148 -35.94921875 123.9921875 C-39.54455254 121.21234311 -42.46977383 118.79533925 -45 115 C-42.45331883 116.22240696 -40.06020663 117.55691459 -37.625 119 C-30.30465374 123.14768034 -23.42808326 124.26076482 -15.19140625 122.34765625 C-6.21909131 119.44814255 0.39852999 114.31804194 5 106 C8.27597409 99.1204544 7.99072802 90.47352111 5.875 83.25 C3.15990594 76.27915385 -1.14019695 70.81697749 -7.5859375 66.984375 C-10.58782393 65.7603048 -13.48476317 65.41465718 -16.6875 64.9375 C-20.4187484 64.13671003 -22.38859639 63.68629442 -24.9453125 60.81640625 C-29.8352246 50.74318733 -29.89411896 36.60852429 -26.5 26 C-21.010789 13.57196241 -12.32815488 5.31385986 0 0 Z " fill="#EFF0F1" transform="translate(97,40)"/>
<path d="M0 0 C2.52297026 2.22525213 4.96587818 4.51238456 7.39453125 6.83984375 C8.10609375 7.48824219 8.81765625 8.13664062 9.55078125 8.8046875 C23.89951259 22.2980137 32.62177258 42.69436973 33.50268555 62.23950195 C34.12880433 87.70081402 28.4566386 109.50836931 10.640625 128.49609375 C9.52880859 129.65625 9.52880859 129.65625 8.39453125 130.83984375 C7.74613281 131.55140625 7.09773437 132.26296875 6.4296875 132.99609375 C-7.31594195 147.61312302 -28.46229892 156.39979896 -48.35546875 157.02734375 C-73.34433745 157.48899888 -94.83060198 151.59420771 -113.33203125 134.05078125 C-114.08226563 133.32117188 -114.8325 132.5915625 -115.60546875 131.83984375 C-116.31445312 131.19273437 -117.0234375 130.545625 -117.75390625 129.87890625 C-131.56064228 116.91856017 -140.8065497 96.44594687 -141.71484375 77.56640625 C-142.20710319 61.96178212 -140.9541079 48.29037995 -134.60546875 33.83984375 C-134.033125 32.52693359 -134.033125 32.52693359 -133.44921875 31.1875 C-125.998288 15.2535839 -113.07154146 1.2237348 -97.60546875 -7.16015625 C-96.65027344 -7.69125 -95.69507813 -8.22234375 -94.7109375 -8.76953125 C-65.05410682 -24.47249271 -26.07898077 -21.6217037 0 0 Z M-114.60546875 14.4375 C-131.58915001 34.83782027 -136.56093955 56.59246808 -134.60546875 82.83984375 C-131.85588565 101.3670346 -121.03206927 119.97318727 -106.60546875 131.83984375 C-102.06181321 135.06121391 -97.40306431 138.0137269 -92.60546875 140.83984375 C-91.74824219 141.34773437 -90.89101562 141.855625 -90.0078125 142.37890625 C-73.36038615 151.43910824 -50.81884521 153.31548211 -32.55541992 148.34838867 C-29.48782786 147.35171891 -26.55256827 146.14735973 -23.60546875 144.83984375 C-22.5484375 144.39382812 -21.49140625 143.9478125 -20.40234375 143.48828125 C-1.59678507 134.85701201 13.70152823 119.37295229 21.33203125 100.08984375 C22.07382903 98.02522028 22.75394186 95.93807616 23.39453125 93.83984375 C23.65129639 93.05706055 23.90806152 92.27427734 24.17260742 91.46777344 C26.42343332 84.11405229 26.90103064 77.25420943 26.83203125 69.58984375 C26.81958374 67.80477417 26.81958374 67.80477417 26.80688477 65.98364258 C26.39193056 44.34547916 17.36267249 26.54254574 2.76953125 10.71484375 C-6.4630239 1.92280813 -17.48423088 -4.34980271 -29.60546875 -8.16015625 C-30.30824951 -8.41692139 -31.01103027 -8.67368652 -31.73510742 -8.93823242 C-38.93303095 -11.40632189 -45.7257477 -11.66258241 -53.29296875 -11.59765625 C-54.53449707 -11.58935791 -55.77602539 -11.58105957 -57.05517578 -11.57250977 C-79.31624135 -11.16264478 -99.18617807 -1.78487874 -114.60546875 14.4375 Z " fill="#413B70" transform="translate(166.60546875,43.16015625)"/>
<path d="M0 0 C4.23061596 1.49933793 6.04480124 4.53467437 8.3125 8.1875 C8.70203857 8.80971436 9.09157715 9.43192871 9.49291992 10.07299805 C23.33158438 32.66794805 28.79608958 59.01054117 22.97265625 85.125 C18.91906043 101.27426528 12.22582129 114.85251549 2 128 C1.23429687 128.99773437 1.23429687 128.99773437 0.453125 130.015625 C-0.64006601 131.39175957 -1.81082977 132.70590298 -3 134 C-3.66 134 -4.32 134 -5 134 C-5.33 134.99 -5.66 135.98 -6 137 C-7.86089067 138.67094329 -9.69664191 140.18659312 -11.6875 141.6875 C-12.26983398 142.12739258 -12.85216797 142.56728516 -13.45214844 143.02050781 C-35.76830225 159.53374523 -62.16963505 166.69492631 -89.79296875 163.10107422 C-107.21185988 160.4353327 -125.85782097 152.98405597 -139 141 C-140.2890625 138.765625 -140.2890625 138.765625 -141 137 C-140.3915625 137.4125 -139.783125 137.825 -139.15625 138.25 C-115.14100528 154.07180829 -88.76435648 161.28503732 -59.92578125 156.28125 C-56.18745451 155.45761023 -52.60273596 154.29546087 -49 153 C-47.87207031 152.62617188 -46.74414062 152.25234375 -45.58203125 151.8671875 C-33.60072145 147.62527008 -23.67633971 141.13349178 -14 133 C-12.78570312 132.08927734 -12.78570312 132.08927734 -11.546875 131.16015625 C4.37350708 117.6571328 15.56924428 94.50157803 18 74 C19.41418124 47.67672302 16.3401499 25.1433859 1.28515625 2.94140625 C0 1 0 1 0 0 Z " fill="#A8A8A8" transform="translate(192,53)"/>
<path d="M0 0 C0.71285156 0.45890625 1.42570312 0.9178125 2.16015625 1.390625 C7.37254796 4.72992305 12.58843574 7.99357541 18 11 C18 11.99 18 12.98 18 14 C13.96153796 12.57292963 10.77865104 10.63122108 7.3125 8.125 C6.35988281 7.44695312 5.40726563 6.76890625 4.42578125 6.0703125 C2.11759893 4.10036623 1.07120295 2.79389776 0 0 Z " fill="#B6B6B6" transform="translate(51,190)"/>
<path d="M0 0 C4.55015893 1.51671964 6.50057264 5.16891053 9 9 C8.67 9.66 8.34 10.32 8 11 C4.31993178 7.61831569 2.0214155 4.57478244 0 0 Z " fill="#BCBCBC" transform="translate(192,53)"/>
<path d="M0 0 C2.86697492 1.28519565 4.97607712 2.57129254 7 5 C7 5.66 7 6.32 7 7 C3.17053157 5.54744301 1.87949705 3.57104439 0 0 Z " fill="#DEDEDE" transform="translate(186,46)"/>
</svg>
